0
SECTION
2
HEADER
9
$ACADVER
1
AC1015
9
$INSUNITS
70
6
9
$HANDSEED
5
10000
0
ENDSEC
0
SECTION
2
TABLES
0
TABLE
2
LTYPE
70
1
0
LTYPE
5
1
2
CONTINUOUS
70
0
3
Solid line
72
65
73
0
40
0.0
0
ENDTAB
0
TABLE
2
LAYER
70
13
0
LAYER
5
2
2
0
70
0
62
7
6
CONTINUOUS
0
LAYER
5
3
2
RL_1000
70
0
62
7
6
CONTINUOUS
0
LAYER
5
4
2
RL_1010
70
0
62
7
6
CONTINUOUS
0
LAYER
5
5
2
RL_1020
70
0
62
7
6
CONTINUOUS
0
LAYER
5
6
2
RL_1030
70
0
62
7
6
CONTINUOUS
0
LAYER
5
7
2
RL_1040
70
0
62
7
6
CONTINUOUS
0
LAYER
5
8
2
RL_1050
70
0
62
7
6
CONTINUOUS
0
LAYER
5
9
2
RL_1060
70
0
62
7
6
CONTINUOUS
0
LAYER
5
A
2
RL_1070
70
0
62
7
6
CONTINUOUS
0
LAYER
5
B
2
RL_1080
70
0
62
7
6
CONTINUOUS
0
LAYER
5
C
2
RL_1090
70
0
62
7
6
CONTINUOUS
0
LAYER
5
D
2
RL_1100
70
0
62
7
6
CONTINUOUS
0
LAYER
5
E
2
DH
70
0
62
7
6
CONTINUOUS
0
ENDTAB
0
ENDSEC
0
SECTION
2
BLOCKS
0
ENDSEC
0
SECTION
2
ENTITIES
0
LWPOLYLINE
5
F
8
RL_1000
62
1
90
90
70
1
10
600464
20
7790400
10
600465.5240002719
20
7790404.581884445
10
600465.6593258944
20
7790409.227816467
10
600464.5653577886
20
7790413.723790455
10
600462.5219428028
20
7790417.927878607
10
600459.8788753196
20
7790421.794128277
10
600456.9963908859
20
7790425.376428181
10
600454.1866713988
20
7790428.811564253
10
600451.6660337232
20
7790432.284521008
10
600449.52551589
20
7790435.982393515
10
600447.7243316858
20
7790440.0454691155
10
600446.1066982752
20
7790444.524720968
10
600444.4385362433
20
7790449.353994492
10
600442.4571838771
20
7790454.34271723
10
600439.9251292557
20
7790459.191438298
10
600436.6782032303
20
7790463.528511525
10
600432.6597779464
20
7790466.962468188
10
600427.9350757935
20
7790469.141738846
10
600422.683257752
20
7790469.811888953
10
600417.1689014452
20
7790468.860702567
10
600411.6981085596
20
7790466.343270398
10
600406.567166597
20
7790462.482416435
10
600402.0129658779
20
7790457.643800729
10
600398.1740212406
20
7790452.289190243
10
600395.0690356375
20
7790446.914992055
10
600392.5968090162
20
7790441.985582434
10
600390.5574929293
20
7790437.871827324
10
600388.6913883708
20
7790434.80432784
10
600386.7283505178
20
7790432.848485157
10
600384.4389517996
20
7790431.904876905
10
600381.6782032303
20
7790431.734282891
10
600378.4139098739
20
7790432.002694684
10
600374.7344215913
20
7790432.338465666
10
600370.8341695438
20
7790432.39193631
10
600366.979320238
20
7790431.887699783
10
600363.4594429426
20
7790430.661167949
10
600360.5336465087
20
7790428.673984237
10
600358.380743146
20
7790426.006598057
10
600357.0624361843
20
7790422.830307653
10
600356.5063905453
20
7790419.364602556
10
600356.5126870332
20
7790415.828087488
10
600356.7831562496
20
7790412.392230532
10
600356.9691217078
20
7790409.146495535
10
600356.7298383329
20
7790406.081224638
10
600355.7919547433
20
7790403.091327667
10
600354
20
7790400
10
600351.3492641103
20
7790396.59800914
10
600347.9952824282
20
7790392.691213584
10
600344.2379706181
20
7790388.1474147625
10
600340.4826413488
20
7790382.933672034
10
600337.1839582794
20
7790377.1368305795
10
600334.7816999953
20
7790370.962942031
10
600333.6385408539
20
7790364.714986273
10
600333.9896845924
20
7790358.752176992
10
600335.9121782113
20
7790353.437471943
10
600339.3184347271
20
7790349.082120961
10
600343.974469103
20
7790345.89677371
10
600349.5392882995
20
7790343.957702078
10
600355.6184632444
20
7790343.194223406
10
600361.82272166
20
7790343.399857249
10
600367.8217967697
20
7790344.265717109
10
600373.3848341119
20
7790345.430823135
10
600378.4011951339
20
7790346.541082026
10
600382.8790481468
20
7790347.30712834
10
600386.9230785165
20
7790347.551332645
10
600390.6962914285
20
7790347.236046724
10
600394.3735895724
20
7790346.468280623
10
600398.0961183342
20
7790345.479962397
10
600401.9350629714
20
7790344.587046631
10
600405.8717205318
20
7790344.134310886
10
600409.7975909719
20
7790344.435100445
10
600413.5344870326
20
7790345.716137465
10
600416.8709175279
20
7790348.076654867
10
600419.6079204098
20
7790351.468693971
10
600421.6056602588
20
7790355.701831772
10
600422.8217967697
20
7790360.471488475
10
600423.3339410417
20
7790365.40600977
10
600423.3412255303
20
7790370.1245936975
10
600423.143654999
20
7790374.296367119
10
600423.1018471402
20
7790377.6908055395
10
600423.5833234702
20
7790380.2112419745
10
600424.9040475925
20
7790381.906150305
10
600427.2749751696
20
7790382.956703942
10
600430.7627760683
20
7790383.64314182
10
600435.271700336
20
7790384.296027231
10
600440.5501465659
20
7790385.240953655
10
600446.2214279021
20
7790386.746218826
10
600451.8342066988
20
7790388.982299247
10
600456.9247699898
20
7790391.99974531
10
600461.0813096389
20
7790395.728778748
0
LWPOLYLINE
5
10
8
RL_1010
62
2
90
90
70
1
10
600509.3262565098
20
7790400
10
600512.42078127
20
7790407.861226831
10
600513.799492748
20
7790415.9934757
10
600513.2750690673
20
7790424.077359204
10
600510.8347985618
20
7790431.781367069
10
600506.6403052952
20
7790438.813896901
10
600501.002030253
20
7790444.969001143
10
600494.3328247776
20
7790450.157652649
10
600487.0883410698
20
7790454.418835243
10
600479.703924747
20
7790457.908290978
10
600472.5380948688
20
7790460.866688651
10
600465.8313867435
20
7790463.572631208
10
600459.6865700283
20
7790466.2886516405
10
600454.0725236902
20
7790469.209674229
10
600448.8499972468
20
7790472.42309923
10
600443.8138118075
20
7790475.887748124
10
600438.7433823429
20
7790479.435705653
10
600433.4522241015
20
7790482.797160091
10
600427.8275363132
20
7790485.644350391
10
600421.8529431238
20
7790487.647367623
10
600415.6106529569
20
7790488.532412306
10
600409.263104934
20
7790488.132556319
10
600403.0179298251
20
7790486.422202862
10
600397.0830997461
20
7790483.529094469
10
600391.6209389062
20
7790479.7214410305
10
600386.7099009128
20
7790475.371897334
10
600382.3216455729
20
7790470.904006872
10
600378.3182112154
20
7790466.7296843985
10
600374.4704589465
20
7790463.187831435
10
600370.4951007663
20
7790460.494008244
10
600366.1041969305
20
7790458.709253079
10
600361.0586278825
20
7790457.7329583615
10
600355.2161403861
20
7790457.32072637
10
600348.5653081253
20
7790457.124012493
10
600341.2390192338
20
7790456.744819523
10
600333.5045243513
20
7790455.796329092
10
600325.7310638922
20
7790453.959540592
10
600318.3399556391
20
7790451.026858997
10
600311.7450939886
20
7790446.925965916
10
600306.29355369
20
7790441.720797895
10
600302.2160936408
20
7790435.590431305
10
600299.5957909713
20
7790428.7904436495
10
600298.3600598603
20
7790421.604236204
10
600298.2974243105
20
7790414.293364879
10
600299.0962783765
20
7790407.055875567
10
600300.3991849959
20
7790400
10
600301.863663671
20
7790393.137638865
10
600303.2193420541
20
7790386.398365549
10
600304.3119810139
20
7790379.660883691
10
600305.1271190535
20
7790372.7956391545
10
600305.7895385181
20
7790365.710196264
10
600306.5388432759
20
7790358.388412064
10
600307.685459027
20
7790350.9154878855
10
600309.5546392269
20
7790343.48346603
10
600312.4280277973
20
7790336.375237933
10
600316.4926649434
20
7790329.929025954
10
600321.805975689
20
7790324.488908466
10
600328.2824916184
20
7790320.349637659
10
600335.7043104544
20
7790317.7052701805
10
600343.753243113
20
7790316.610753634
10
600352.0589313243
20
7790316.963633285
10
600360.2545679397
20
7790318.509787962
10
600368.0306655138
20
7790320.873120501
10
600375.1777903899
20
7790323.605094126
10
600381.6112153899
20
7790326.246613295
10
600387.3736800159
20
7790328.392581025
10
600392.6163121571
20
7790329.748902846
10
600397.5615823864
20
7790330.172855605
10
600402.455264945
20
7790329.690411158
10
600407.5162294579
20
7790328.4878536165
10
600412.893165784
20
7790326.879223293
10
600418.6360083313
20
7790325.255053108
10
600424.6871154876
20
7790324.020871083
10
600430.8936550237
20
7790323.535520597
10
600437.0387846176
20
7790324.0592376115
10
600442.8857806904
20
7790325.719648922
10
600448.2268675179
20
7790328.500728584
10
600452.9275608743
20
7790332.255811347
10
600456.9580396562
20
7790336.741688338
10
600460.4052820596
20
7790341.667297176
10
600463.463069467
20
7790346.748161817
10
600466.400888652
20
7790351.756930497
10
600469.5165671238
20
7790356.561227755
10
600473.0804904202
20
7790361.142413973
10
600477.2809398703
20
7790365.592308742
10
600482.1801469875
20
7790370.088872649
10
600487.6890589042
20
7790374.8555669775
10
600493.5658073334
20
7790380.111973703
10
600499.4389736124
20
7790386.024763647
10
600504.8526039891
20
7790392.667991679
0
LWPOLYLINE
5
11
8
RL_1020
62
3
90
90
70
1
10
600537.8034373003
20
7790400
10
600539.4195910684
20
7790409.749167526
10
600540.163689277
20
7790419.698721886
10
600539.6769040175
20
7790429.689242463
10
600537.6705925484
20
7790439.4764071675
10
600533.9764950156
20
7790448.763456277
10
600528.5786315462
20
7790457.246895082
10
600521.6216070846
20
7790464.667355581
10
600513.3939565509
20
7790470.856408141
10
600504.2893036876
20
7790475.770614346
10
600494.751761423
20
7790479.506168064
10
600485.2145520841
20
7790482.290736398
10
600476.0418456085
20
7790484.453025384
10
600467.4831398149
20
7790486.37448012
10
600459.647266323
20
7790488.430708929
10
600452.4996940327
20
7790490.9321374465
10
600445.8828130617
20
7790494.073707883
10
600439.5550051137
20
7790497.902073144
10
600433.2412070779
20
7790502.305915779
10
600426.6858803115
20
7790507.031219948
10
600419.6991063871
20
7790511.719183915
10
600412.187959137
20
7790515.960685183
10
600404.1680887142
20
7790519.358444126
10
600395.7540971879
20
7790521.586748341
10
600387.1311404791
20
7790522.4390195925
10
600378.5135772505
20
7790521.855558707
10
600370.0988051116
20
7790519.927142348
10
600362.0252699213
20
7790516.874201592
10
600354.3428564139
20
7790513.005395855
10
600347.0016046454
20
7790508.662813593
10
600339.8613454883
20
7790504.163205113
10
600332.7210005579
20
7790499.745218573
10
600325.3626279542
20
7790495.531479799
10
600317.6024661927
20
7790491.511732237
10
600309.3397427086
20
7790487.549592787
10
600300.5941461448
20
7790483.411415307
10
600291.5246077018
20
7790478.811985747
10
600282.4251090375
20
7790473.468945917
10
600273.6971123806
20
7790467.156436593
10
600265.8022286766
20
7790459.748697298
10
600259.2022081653
20
7790451.246205279
10
600254.2956515517
20
7790441.7800496025
10
600251.3615904634
20
7790431.594069263
10
600250.5191308568
20
7790421.008166121
10
600251.7098416841
20
7790410.369458013
10
600254.7059196419
20
7790400
10
600259.1429816287
20
7790390.150317766
10
600264.5723337738
20
7790380.966882747
10
600270.5244150003
20
7790372.479114832
10
600276.573345087
20
7790364.607976224
10
600282.3924179333
20
7790357.194340804
10
600287.7919802843
20
7790350.041770901
10
600292.7341474496
20
7790342.965734504
10
600297.3227141605
20
7790335.840110942
10
600301.7707538449
20
7790328.632275174
10
600306.3520606299
20
7790321.420048614
10
600311.3451573689
20
7790314.387013639
10
600316.9796423806
20
7790307.796551842
10
600323.3940128937
20
7790301.948807827
10
600330.611910182
20
7790297.127926356
10
600338.5403731618
20
7790293.548803702
10
600346.989755334
20
7790291.312891718
10
600355.7111413158
20
7790290.381228118
10
600364.4440569184
20
7790290.570059329
10
600372.9655253923
20
7790291.570644695
10
600381.1313775982
20
7790292.990724811
10
600388.9021914694
20
7790294.411404998
10
600396.349050642
20
7790295.45048946
10
600403.6379733564
20
7790295.822073531
10
600410.9957235067
20
7790295.38267912
10
600418.6630948032
20
7790294.1563297445
10
600426.8440601518
20
7790292.334355365
10
600435.6599940751
20
7790290.249823299
10
600445.1173589526
20
7790288.330617996
10
600455.0949345863
20
7790287.038643966
10
600465.3532657882
20
7790286.804823214
10
600475.5650976783
20
7790287.9701356
10
600485.3618460627
20
7790290.741819424
10
600494.3882643495
20
7790295.17121236
10
600502.3559294739
20
7790301.156027872
10
600509.0862553377
20
7790308.46576338
10
600514.5354498308
20
7790316.785124734
10
600518.7968751421
20
7790325.767473621
10
600522.0801318984
20
7790335.088842452
10
600524.6702024332
20
7790344.493249673
10
600526.8734638983
20
7790353.821835623
10
600528.9597144332
20
7790363.021396938
10
600531.1101359837
20
7790372.131680295
10
600533.3802019767
20
7790381.254635082
10
600535.6840744291
20
7790390.512045244
0
LWPOLYLINE
5
12
8
RL_1030
62
4
90
90
70
1
10
600556.3479876595
20
7790400
10
600554.7154567927
20
7790410.818758652
10
600553.2889190171
20
7790421.543352629
10
600551.8720954979
20
7790432.281410432
10
600550.1726840569
20
7790443.06132422
10
600547.8568439487
20
7790453.81549013
10
600544.6091360188
20
7790464.384135514
10
600540.1878437339
20
7790474.539198718
10
600534.4665129184
20
7790484.024002781
10
600527.455002467
20
7790492.601479699
10
600519.2969069775
20
7790500.101990646
10
600510.2442784939
20
7790506.461662228
10
600500.6144394126
20
7790511.743655584
10
600490.7366811939
20
7790516.137655827
10
600480.8982746478
20
7790519.936624412
10
600471.2992068337
20
7790523.4938487755
10
600462.0234212107
20
7790527.1668587765
10
600453.0313667904
20
7790531.2572387615
10
600444.1748828944
20
7790535.956309841
10
600435.2315203511
20
7790541.305910083
10
600425.9520116354
20
7790547.18117177
10
600416.1123392752
20
7790553.2986680735
10
600405.5611034743
20
7790559.249167625
10
600394.2537806814
20
7790564.550191828
10
600382.2678327897
20
7790568.710301402
10
600369.796052191
20
7790571.295100089
10
600357.1194071922
20
7790571.984664052
10
600344.5643027927
20
7790570.613532667
10
600332.4519511869
20
7790567.187287591
10
600321.0489646392
20
7790561.873611097
10
600310.5280885058
20
7790554.969896559
10
600300.946214219
20
7790546.853276582
10
600292.2437583879
20
7790537.921699768
10
600284.2656964554
20
7790528.535965912
10
600276.8006613676
20
7790518.972218381
10
600269.6312400566
20
7790509.392378385
10
600262.5865022363
20
7790499.836750047
10
600255.5872533662
20
7790490.239099396
10
600248.6756241653
20
7790480.460597872
10
600242.0232116812
20
7790470.335797773
10
600235.9156323145
20
7790459.721825746
10
600230.715412735
20
7790448.541574278
10
600226.8089313825
20
7790436.8128980575
10
600224.5459763929
20
7790424.6584549295
10
600224.1819076843
20
7790412.294398678
10
600225.8321474016
20
7790400
10
600229.4468076937
20
7790388.073758995
10
600234.8100145309
20
7790376.784061558
10
600241.5644467976
20
7790366.323483565
10
600249.257463026
20
7790356.775273086
10
600257.4016350596
20
7790348.0984397065
10
600265.5401490934
20
7790340.134617354
10
600273.3067670163
20
7790332.636013095
10
600280.4709905782
20
7790325.309985348
10
600286.961571106
20
7790317.872774109
10
600292.8651284112
20
7790310.103168763
10
600298.4007652429
20
7790301.886759466
10
600303.8754866787
20
7790293.242912523
10
600309.6282938062
20
7790284.32949087
10
600315.9725062018
20
7790275.424117413
10
600323.1459053239
20
7790266.884803251
10
600331.2766930454
20
7790259.0963397445
10
600340.3703195946
20
7790252.411361955
10
600350.3184760021
20
7790247.0959914895
10
600360.9276285311
20
7790243.289277485
10
600371.9610802162
20
7790240.983383989
10
600383.1862654068
20
7790240.028001243
10
600394.4182074873
20
7790240.158375835
10
600405.550923254
20
7790241.042355744
10
600416.5708794307
20
7790242.338613769
10
600427.5499799132
20
7790243.756299788
10
600438.6193850086
20
7790245.1061069425
10
600449.9290561038
20
7790246.334166002
10
600461.6006410787
20
7790247.533063104
10
600473.6826799393
20
7790248.928118262
10
600486.1168668672
20
7790250.841211198
10
600498.7222863479
20
7790253.638191538
10
600511.201456433
20
7790257.668626351
10
600523.168194485
20
7790263.207861776
10
600534.1934346368
20
7790270.410906519
10
600543.8618526105
20
7790279.285572534
10
600551.8300713367
20
7790289.688996144
10
600557.8767056108
20
7790301.347685283
10
600561.9356621196
20
7790313.897281129
10
600564.1067598773
20
7790326.934963049
10
600564.6414340737
20
7790340.075418671
10
600563.9054086509
20
7790353.000880368
10
600562.3240681868
20
7790365.49695419
10
600560.3191704922
20
7790377.46860996
10
600558.2470175661
20
7790388.934290562
0
LWPOLYLINE
5
13
8
RL_1040
62
5
90
90
70
1
10
600581.0083674873
20
7790400
10
600577.2630383797
20
7790412.395439149
10
600573.8840305149
20
7790424.43780679
10
600571.0233988559
20
7790436.352145626
10
600568.6627723364
20
7790448.363271717
10
600566.6219895278
20
7790460.645444563
10
600564.5919130932
20
7790473.281041079
10
600562.185828391
20
7790486.235734637
10
600559.0008933399
20
7790499.354785174
10
600554.6796182329
20
7790512.381320862
10
600548.9615561208
20
7790524.993586801
10
600541.7172279631
20
7790536.854736241
10
600532.95946339
20
7790547.666444006
10
600522.8312566837
20
7790557.216839164
10
600511.5732407287
20
7790565.414131835
10
600499.4772818284
20
7790572.299706326
10
600486.8349168792
20
7790578.03796366
10
600473.8900210338
20
7790582.8842196595
10
600460.804109423
20
7790587.135806563
10
600447.6402287052
20
7790591.07452096
10
600434.3679244675
20
7790594.910185211
10
600420.887895882
20
7790598.735054104
10
600407.0713544668
20
7790602.497097567
10
600392.806422596
20
7790605.997104553
10
600378.0426109649
20
7790608.9106017435
10
600362.8247300569
20
7790610.831432568
10
600347.3094628995
20
7790611.33020158
10
600331.7609256993
20
7790610.018275567
10
600316.5253238977
20
7790606.607073414
10
600301.9886074973
20
7790600.953134567
10
600288.5241701867
20
7790593.081801052
10
600276.4395633313
20
7790583.185880657
10
600265.9315600696
20
7790571.59977783
10
600257.0576298989
20
7790558.753585134
10
600249.7291795132
20
7790545.114844525
10
600243.7282409361
20
7790531.127575394
10
600238.7452744341
20
7790517.158415966
10
600234.4320950494
20
7790503.458309463
10
600230.4612641969
20
7790490.145344858
10
600226.5820799604
20
7790477.210632548
10
600222.6637703043
20
7790464.545109066
10
600218.7185728179
20
7790451.981612768
10
600214.9007259926
20
7790439.344065251
10
600211.4814351116
20
7790426.494556466
10
600208.8039236019
20
7790413.369732078
10
600207.2260473372
20
7790400
10
600207.0600588878
20
7790386.508325022
10
600208.5195991417
20
7790373.089184634
10
600211.6827794616
20
7790359.971939099
10
600216.4775043379
20
7790347.375771186
10
600222.6914341905
20
7790335.464959765
10
600230.0048393743
20
7790324.313278126
10
600238.040755685
20
7790313.8847422525
10
600246.4239711149
20
7790304.035046361
10
600254.838940123
20
7790294.534316589
10
600263.0769733554
20
7790285.107938843
10
600271.0649367144
20
7790275.488856706
10
600278.8708834614
20
7790265.472487262
10
600286.6859842761
20
7790254.964673764
10
600294.786134121
20
7790244.0140291015
10
600303.480013557
20
7790232.822479535
10
600313.0525872919
20
7790221.73138571
10
600323.7136644147
20
7790211.184693698
10
600335.560124809
20
7790201.6744569875
10
600348.55792416
20
7790193.67710304
10
600362.5464689778
20
7790187.590470433
10
600377.264022496
20
7790183.681623804
10
600392.3891495068
20
7790182.053757579
10
600407.5904690316
20
7790182.637406274
10
600422.5756321192
20
7790185.207208233
10
600437.1307079417
20
7790189.421291101
10
600451.1429910377
20
7790194.876666662
10
600464.6033085327
20
7790201.171460882
10
600477.58766451
20
7790207.963791584
10
600490.2218441063
20
7790215.017806434
10
600502.6357418402
20
7790222.22968046
10
600514.9161186162
20
7790229.629847887
10
600527.0668809374
20
7790237.361809015
10
600538.9847363923
20
7790245.6418123925
10
600550.4554191486
20
7790254.706890619
10
600561.1720557441
20
7790264.760587469
10
600570.7732839218
20
7790275.925946584
10
600578.8951369337
20
7790288.213911724
10
600585.22809642
20
7790301.512474125
10
600589.5695644657
20
7790315.598192038
10
600591.8625261403
20
7790330.167751414
10
600592.2132959795
20
7790344.883724296
10
600590.884616779
20
7790359.426222182
10
600588.264439981
20
7790373.54115846
10
600584.8147758774
20
7790387.076491923
0
LWPOLYLINE
5
14
8
RL_1050
62
6
90
90
70
1
10
600622.2101712746
20
7790400
10
600619.3498016448
20
7790415.33843233
10
600615.7900974782
20
7790430.32732042
10
600611.8981522587
20
7790445.040342668
10
600607.9572200199
20
7790459.630773276
10
600604.1215096769
20
7790474.294153696
10
600600.3916309887
20
7790489.220102412
10
600596.6147214293
20
7790504.541901788
10
600592.5091959126
20
7790520.2930964865
10
600587.7099985745
20
7790536.379296896
10
600581.8268854516
20
7790552.57087252
10
600574.5061929157
20
7790568.518671633
10
600565.4860930336
20
7790583.790925954
10
600554.6365691519
20
7790597.925782717
10
600541.9780397736
20
7790610.491100155
10
600527.6762438053
20
7790621.14174119
10
600512.0150361592
20
7790629.664858952
10
600495.3524340056
20
7790636.005555849
10
600478.0679692657
20
7790640.26850379
10
600460.5106836437
20
7790642.695096234
10
600442.9567414518
20
7790643.619786826
10
600425.5837117715
20
7790643.412757886
10
600408.4654356017
20
7790642.418358038
10
600391.5876055731
20
7790640.899457525
10
600374.8804169302
20
7790638.996868264
10
600358.2615642542
20
7790636.710431824
10
600341.6810022703
20
7790633.904724157
10
600325.1585877122
20
7790630.338182497
10
600308.8070255482
20
7790625.710532189
10
600292.8352268892
20
7790619.720345991
10
600277.5307745686
20
7790612.122920811
10
600263.2240521451
20
7790602.778681721
10
600250.240039227
20
7790591.684008629
10
600238.846196068
20
7790578.97943146
10
600229.2058156948
20
7790564.934026586
10
600221.3455285012
20
7790549.908901143
10
600215.1434054155
20
7790534.306177548
10
600210.3406947709
20
7790518.512287142
10
600206.5762250123
20
7790502.845245468
10
600203.438597502
20
7790487.514774817
10
600200.5281567232
20
7790472.601813527
10
600197.5189065678
20
7790458.060519245
10
600194.210365258
20
7790443.741937188
10
600190.5608617772
20
7790429.434751305
10
600186.6967287401
20
7790414.915617736
10
600182.8957480638
20
7790400
10
600179.5474004784
20
7790384.58445253
10
600177.0962500308
20
7790368.672920921
10
600175.9775219813
20
7790352.382552336
10
600176.5551473424
20
7790335.928219529
10
600179.0720477011
20
7790319.588801445
10
600183.6203096972
20
7790303.661554959
10
600190.135515618
20
7790288.413074283
10
600198.4154341387
20
7790274.035982976
10
600208.1592259089
20
7790260.619519018
10
600219.0199696303
20
7790248.1397232665
10
600230.6612294461
20
7790236.471450136
10
600242.8079082413
20
7790225.420495661
10
600255.2828303201
20
7790214.770469634
10
600268.0231491672
20
7790204.336272208
10
600281.0743110687
20
7790194.014664446
10
600294.5632860734
20
7790183.822700392
10
600308.6564110538
20
7790173.9166838555
10
600323.5098465816
20
7790164.587514068
10
600339.2218739272
20
7790156.232250771
10
600355.7958460237
20
7790149.305785202
10
600373.120638023
20
7790144.259953855
10
600390.9722715426
20
7790141.479681324
10
600409.0365734147
20
7790141.226394887
10
600426.9489471773
20
7790143.597894899
10
600444.3442497374
20
7790148.51126266
10
600460.9079201164
20
7790155.711675296
10
600476.4192281351
20
7790164.805799644
10
600490.7788503102
20
7790175.314461029
10
600504.0157066117
20
7790186.736197149
10
600516.2716302265
20
7790198.611628968
10
600527.7663573353
20
7790210.578585526
10
600538.748829015
20
7790222.409597326
10
600549.4432757543
20
7790234.02642769
10
600559.9995664661
20
7790245.49021469
10
600570.4566620231
20
7790256.969877765
10
600580.7258190679
20
7790268.695006538
10
600590.5968145947
20
7790280.901891988
10
600599.7664841405
20
7790293.782276252
10
600607.8849723935
20
7790307.443647046
10
600614.611959818
20
7790321.887634709
10
600619.6732998836
20
7790337.009694884
10
600622.9083032523
20
7790352.619377493
10
600624.2993827907
20
7790368.476777519
10
600623.9786832379
20
7790384.337884738
0
LWPOLYLINE
5
15
8
RL_1060
62
1
90
90
70
1
10
600675.1708846086
20
7790400
10
600675.2989788781
20
7790419.250779924
10
600673.2549994404
20
7790438.403485708
10
600669.2912540848
20
7790457.239623056
10
600663.7449576486
20
7790475.627649623
10
600656.9806847386
20
7790493.5333200265
10
600649.330935477
20
7790511.009284609
10
600641.0447633847
20
7790528.165774144
10
600632.2529360935
20
7790545.127741656
10
600622.9551979047
20
7790561.986433118
10
600613.0313809648
20
7790578.754553197
10
600602.2740272091
20
7790595.333757511
10
600590.4365364239
20
7790611.501200633
10
600577.2882685543
20
7790626.918635822
10
600562.6669373171
20
7790641.163652134
10
600546.5192141578
20
7790653.778723206
10
600528.922604294
20
7790664.33051085
10
600510.0849788769
20
7790672.4698839765
10
600490.3220660825
20
7790677.982735826
10
600470.017035756
20
7790680.822992032
10
600449.5693918763
20
7790681.121990957
10
600429.3421830052
20
7790679.172222993
10
600409.61674682
20
7790675.387597696
10
600390.5627926551
20
7790670.246259811
10
600372.2288497634
20
7790664.224844663
10
600354.5544603635
20
7790657.734462723
10
600337.4016185454
20
7790651.068394808
10
600320.5995311458
20
7790644.369515837
10
600303.9944073679
20
7790637.622180178
10
600287.4950879477
20
7790630.669253377
10
600271.1060618954
20
7790623.250849585
10
600254.9416631409
20
7790615.057828384
10
600239.2186001963
20
7790605.790807291
10
600224.2278618697
20
7790595.214736366
10
600210.2907789377
20
7790583.200065257
10
600197.7069471261
20
7790569.7440260565
10
600186.703310939
20
7790554.969115686
10
600177.3936805328
20
7790539.0998665765
10
600169.756295468
20
7790522.42274928
10
600163.6340340403
20
7790505.236908276
10
600158.7580063842
20
7790487.804904931
10
600154.7912248423
20
7790470.312484824
10
600151.3855132661
20
7790452.844640481
10
600148.2424107936
20
7790435.3822217295
10
600145.1679677591
20
7790417.819591596
10
600142.112180551
20
7790400
10
600139.1862353828
20
7790381.76212493
10
600136.654325215
20
7790362.989179051
10
600134.9009652672
20
7790343.6514606755
10
600134.3787584237
20
7790323.834334618
10
600135.5447721388
20
7790303.746168762
10
600138.7955414278
20
7790283.704282314
10
600144.4108975881
20
7790264.100863618
10
600152.515312832
20
7790245.354403921
10
600163.0625086662
20
7790227.854836067
10
600175.8452050659
20
7790211.911794244
10
600190.5277485482
20
7790197.714998139
10
600206.6956527521
20
7790185.313772775
10
600223.913439301
20
7790174.619480092
10
600241.7810187254
20
7790165.4307138845
10
600259.979380409
20
7790157.477172761
10
600278.2984568768
20
7790150.474858608
10
600296.6433121336
20
7790144.183220649
10
600315.0186947667
20
7790138.454435916
10
600333.4958118564
20
7790133.266270193
10
600352.1682549515
20
7790128.732693906
10
600371.1058130296
20
7790125.090174555
10
600390.3151329532
20
7790122.661694236
10
600409.71480641
20
7790121.8043430485
10
600429.1297264434
20
7790122.849166165
10
600448.3059562545
20
7790126.043308515
10
600466.9435289879
20
7790131.504170312
10
600484.7412297035
20
7790139.193312421
10
600501.4450997673
20
7790148.914567223
10
600516.8915646672
20
7790160.336775915
10
600531.0368761177
20
7790173.037472899
10
600543.9668498461
20
7790186.560367659
10
600555.8842790384
20
7790200.4772214545
10
600567.0753210845
20
7790214.444057484
10
600577.8599085815
20
7790228.242682795
10
600588.5341654683
20
7790241.801051292
10
600599.3143956318
20
7790255.1896151295
10
600610.2921644282
20
7790268.594871502
10
600621.4083046766
20
7790282.275116155
10
600632.4506233841
20
7790296.506314551
10
600643.0761769279
20
7790311.527506939
10
600652.8548839376
20
7790327.495028764
10
600661.3276561012
20
7790344.45309195
10
600668.0697629255
20
7790362.32525176
10
600672.7492321772
20
7790380.927515734
0
LWPOLYLINE
5
16
8
RL_1070
62
2
90
90
70
1
10
600724.2969058686
20
7790400
10
600726.6887628972
20
7790422.844303687
10
600726.2218947901
20
7790445.847497392
10
600722.8107093509
20
7790468.61553445
10
600716.5510610508
20
7790490.7695561135
10
600707.7031991634
20
7790511.994805484
10
600696.6519970131
20
7790532.077978624
10
600683.8511846014
20
7790550.926352041
10
600669.7607967586
20
7790568.565254241
10
600654.7879762725
20
7790585.114300386
10
600639.240491608
20
7790600.746608271
10
600623.299989073
20
7790615.638292862
10
600607.0185123435
20
7790629.91735061
10
600590.3377944852
20
7790643.621267341
10
600573.1269539271
20
7790656.67126449
10
600555.2311698312
20
7790668.868273066
10
600536.5221918992
20
7790679.911974512
10
600516.9414385139
20
7790689.440217085
10
600496.5279565554
20
7790697.082502767
10
600475.4263762557
20
7790702.518671772
10
600453.8736834509
20
7790705.53284151
10
600432.1674959984
20
7790706.053280509
10
600410.621889605
20
7790704.171121072
10
600389.5190804051
20
7790700.134268155
10
600369.0660405548
20
7790694.316964174
10
600349.3642645917
20
7790687.169525644
10
600330.3985698812
20
7790679.156088867
10
600312.047414799
20
7790670.690223525
10
600294.1133516387
20
7790662.078651312
10
600276.3685790027
20
7790653.481977411
10
600258.607766381
20
7790644.898532424
10
600240.6988890152
20
7790636.173609386
10
600222.6229956332
20
7790627.032212483
10
600204.4956149793
20
7790617.129616708
10
600186.5655897845
20
7790606.111214102
10
600169.1909812964
20
7790593.671762466
10
600152.7956489366
20
7790579.604474155
10
600137.8134909719
20
7790563.832313975
10
600124.6295429649
20
7790546.417069207
10
600113.5277803477
20
7790527.545649733
10
600104.6544366465
20
7790507.4969938835
10
600098.0030966451
20
7790486.596218551
10
600093.4241832875
20
7790465.164701492
10
600090.6573465937
20
7790443.475274718
10
600089.3813836422
20
7790421.720569572
10
600089.2733347096
20
7790400
10
600090.066824312
20
7790378.327361109
10
600091.5998196228
20
7790356.657181228
10
600093.8437479743
20
7790334.924479736
10
600096.9090505219
20
7790313.0900687715
10
600101.0262176897
20
7790291.182442413
10
600106.5054784869
20
7790269.327820041
10
600113.6818985239
20
7790247.76196499
10
600122.8550727341
20
7790226.820628914
10
600134.2334684819
20
7790206.909312332
10
600147.8926408766
20
7790188.456807942
10
600163.7541542524
20
7790171.860038667
10
600181.5885167795
20
7790157.429473353
10
600201.0413770933
20
7790145.344575458
10
600221.6783389444
20
7790135.6272654785
10
600243.0406865533
20
7790128.138494389
10
600264.702597871
20
7790122.59921666
10
600286.3203387216
20
7790118.632964869
10
600307.665478401
20
7790115.823562962
10
600328.6370655037
20
7790113.778902961
10
600349.2514382495
20
7790112.190604372
10
600369.6122607882
20
7790110.879974199
10
600389.8667922196
20
7790109.822895431
10
600410.1567154371
20
7790109.149724222
10
600430.5726790524
20
7790109.120389154
10
600451.1209008056
20
7790110.078964658
10
600471.7078941952
20
7790112.3953451775
10
600492.1460201575
20
7790116.403710745
10
600512.1787289986
20
7790122.347902622
10
600531.520724542
20
7790130.342553224
10
600549.9054975235
20
7790140.356061955
10
600567.1312356044
20
7790152.217753474
10
600583.0962848418
20
7790165.647442332
10
600597.8170925912
20
7790180.301861321
10
600611.4246063422
20
7790195.829630937
10
600624.1389109963
20
7790211.92512245
10
600636.2257958179
20
7790228.371913127
10
600647.9422669376
20
7790245.068476348
10
600659.4801740521
20
7790262.031944128
10
600670.917712513
20
7790279.379663031
10
600682.1874737581
20
7790297.292159069
10
600693.0671173128
20
7790315.964356393
10
600703.1950576502
20
7790335.553901031
10
600712.1094189866
20
7790356.135881737
10
600719.3046132603
20
7790377.672046356
0
LWPOLYLINE
5
17
8
RL_1080
62
3
90
90
70
1
10
600757.5202316417
20
7790400
10
600759.2892316142
20
7790425.123950533
10
600758.7693884516
20
7790450.421749319
10
600755.6259358564
20
7790475.590626166
10
600749.6419068121
20
7790500.258203446
10
600740.7571733377
20
7790524.025468208
10
600729.0847911589
20
7790546.517988923
10
600714.9019648429
20
7790567.436344756
10
600698.6171180995
20
7790586.596685056
10
600680.7184578226
20
7790603.953898004
10
600661.7124001409
20
7790619.602778433
10
600642.0617831567
20
7790633.756346804
10
600622.1336699745
20
7790646.704433839
10
600602.164780546
20
7790658.759119184
10
600582.2494961288
20
7790670.195989491
10
600562.3514959456
20
7790681.201039663
10
600542.3360839633
20
7790691.832219745
10
600522.0168322251
20
7790702.002257336
10
600501.2078903863
20
7790711.485858074
10
600479.7725699388
20
7790719.950302529
10
600457.6597183662
20
7790727.004512494
10
600434.9217785494
20
7790732.258528509
10
600411.711852023
20
7790735.383560944
10
600388.2609413449
20
7790736.162656951
10
600364.8401539702
20
7790734.523589282
10
600341.7153709814
20
7790730.548556916
10
600319.1032394185
20
7790724.459184925
10
600297.1370982182
20
7790716.5794594
10
600275.8496387509
20
7790707.282926975
10
600255.1760502806
20
7790696.933100463
10
600234.9776462938
20
7790685.827101003
10
600215.0821730578
20
7790674.151952607
10
600195.3338402772
20
7790661.96073853
10
600175.6441508171
20
7790649.172413877
10
600156.0342007072
20
7790635.595033814
10
600136.6603602725
20
7790620.968194569
10
600117.8179337083
20
7790605.017271801
10
600099.9210755264
20
7790587.510123057
10
600083.4612896234
20
7790568.306617794
10
600068.9505536864
20
7790547.392709754
10
600056.8578537857
20
7790524.893527344
10
600047.5492006231
20
7790501.063640429
10
600041.2407966488
20
7790476.256622732
10
600037.9729873964
20
7790450.879578536
10
600037.6092962105
20
7790425.340826594
10
600039.8607677497
20
7790400
10
600044.3317189355
20
7790375.129250996
10
600050.5795136766
20
7790350.89215319
10
600058.1787281831
20
7790327.343645757
10
600066.7794357555
20
7790304.450540763
10
600076.1504178941
20
7790282.128391734
10
600086.200714523
20
7790260.287556676
10
600096.9766124327
20
7790238.879606816
10
600108.6353074952
20
7790217.9351334255
10
600121.4003581781
20
7790197.585511929
10
600135.5070174526
20
7790178.064035895
10
600151.1470886604
20
7790159.6855369415
10
600168.4228439785
20
7790142.807512374
10
600187.3178046495
20
7790127.779203745
10
600207.689123349
20
7790114.887400457
10
600229.2824695271
20
7790104.308563478
10
600251.76636834
20
7790096.076015556
10
600274.7795682877
20
7790090.068555689
10
600297.9827939173
20
7790086.02332433
10
600321.1055563536
20
7790083.571669661
10
600343.9796557275
20
7790082.292839999
10
600366.5534388073
20
7790081.777227072
10
600388.884340037
20
7790081.689145894
10
600411.1111230819
20
7790081.8190651685
10
600433.4108685643
20
7790082.116819747
10
600455.9484843665
20
7790082.700377777
10
600478.8278678436
20
7790083.838690622
10
600502.0535860856
20
7790085.911358195
10
600525.5101054681
20
7790089.351587985
10
600548.9625148984
20
7790094.581583452
10
600572.0788879292
20
7790101.950623197
10
600594.4705827297
20
7790111.685504521
10
600615.7435613453
20
7790123.860833957
10
600635.551788695
20
7790138.393235585
10
600653.6433084393
20
7790155.059504235
10
600669.8907779839
20
7790173.534747736
10
600684.3008822922
20
7790193.4433182655
10
600697.0006858191
20
7790214.413373936
10
600708.2029971586
20
7790236.125559544
10
600718.1565167414
20
7790258.347592329
10
600727.0892706037
20
7790280.9492415525
10
600735.1551226181
20
7790303.895815075
10
600742.3927701501
20
7790327.222170036
10
600748.7046185303
20
7790350.992761848
10
600753.8596321638
20
7790375.255724047
0
LWPOLYLINE
5
18
8
RL_1090
62
4
90
90
70
1
10
600777.393723407
20
7790400
10
600776.1452727785
20
7790426.302639753
10
600773.7495890928
20
7790452.527079221
10
600769.9417238411
20
7790478.633540838
10
600764.4099884715
20
7790504.492882718
10
600756.8551020715
20
7790529.8846351
10
600747.0474978545
20
7790554.51550121
10
600734.8731659716
20
7790578.055220758
10
600720.3604256639
20
7790600.183411562
10
600703.6833111738
20
7790620.638840613
10
600685.1412557084
20
7790639.261922498
10
600665.1187795252
20
7790656.022229378
10
600644.0322444688
20
7790671.025264729
10
600622.2728578566
20
7790684.496284477
10
600600.1556382503
20
7790696.742936898
10
600577.882914497
20
7790708.102245707
10
600555.5283257201
20
7790718.880323698
10
600533.0436831171
20
7790729.294671013
10
600510.2870747768
20
7790739.428714404
10
600487.0669338813
20
7790749.206398352
10
600463.1940815956
20
7790758.3914460605
10
600438.5324635173
20
7790766.611901223
10
600413.0396393612
20
7790773.406415464
10
600386.7899910166
20
7790778.2851631185
10
600359.9767431122
20
7790780.795852675
10
600332.8926890289
20
7790780.584472674
10
600305.8933143888
20
7790777.441300368
10
600279.3491409225
20
7790771.325162729
10
600253.5960254277
20
7790762.362552752
10
600228.8925041684
20
7790750.822356027
10
600205.3920080772
20
7790737.070929569
10
600183.1351082247
20
7790721.515423987
10
600162.0633501508
20
7790704.545023967
10
600142.0523311078
20
7790686.479909243
10
600122.9581529999
20
7790667.5362018
10
600104.6688687855
20
7790647.812243277
10
600087.1514815557
20
7790627.297753474
10
600070.4856518962
20
7790605.903417144
10
600054.8774316902
20
7790583.504924649
10
600040.649709364
20
7790559.993057465
10
600028.2100494292
20
7790535.320475407
10
600018.0005515731
20
7790509.536579199
10
600010.4375602158
20
7790482.804052756
10
600005.8509658414
20
7790455.394034258
10
600004.4331155462
20
7790427.6607311405
10
600006.2059318791
20
7790400
10
600011.0119558753
20
7790372.799306191
10
600018.5311632487
20
7790346.38805127
10
600028.3212024583
20
7790320.997232749
10
600039.8748784651
20
7790296.735783104
10
600052.6859021337
20
7790273.588006436
10
600066.312614578
20
7790251.432804084
10
600080.4297962879
20
7790230.081508609
10
600094.8607093873
20
7790209.327809233
10
600109.5848464135
20
7790189.001040142
10
600124.7209016354
20
7790169.013410091
10
600140.4885527162
20
7790149.3927084245
10
600157.156051835
20
7790130.294472017
10
600174.9828036237
20
7790111.9911223985
10
600194.1666946854
20
7790094.839575521
10
600214.8048536262
20
7790079.232597166
10
600236.8739672707
20
7790065.542068434
10
600260.2327152672
20
7790054.06383102
10
600284.644939993
20
7790044.9736308865
10
600309.8185316805
20
7790038.301886306
10
600335.4523119102
20
7790033.931870038
10
600361.281906375
20
7790031.621946279
10
600387.1159267039
20
7790031.048413777
10
600412.855663065
20
7790031.8619763525
10
600438.4945841655
20
7790033.7484967355
10
600464.097696889
20
7790036.483896954
10
600489.7645665009
20
7790039.973988171
10
600515.5828738473
20
7790044.272491981
10
600541.5812398088
20
7790049.574134659
10
600567.6903449052
20
7790056.183841645
10
600593.7200514425
20
7790064.467028457
10
600619.3575191144
20
7790074.789104011
10
600644.1876606534
20
7790087.4540470615
10
600667.7333451913
20
7790102.651996193
10
600689.5092118873
20
7790120.424203877
10
600709.0804291337
20
7790140.6507259095
10
600726.1166760316
20
7790163.062365771
10
600740.4322313081
20
7790187.274332253
10
600752.0052411475
20
7790212.835493288
10
600760.9726386206
20
7790239.284626675
10
600767.6012287497
20
7790266.204094656
10
600772.2394464002
20
7790293.262056347
10
600775.2575556516
20
7790320.23654423
10
600776.9860281032
20
7790347.018068939
10
600777.6621722092
20
7790373.591288306
0
LWPOLYLINE
5
19
8
RL_1100
62
5
90
90
70
1
10
600798.7440184641
20
7790400
10
600794.7771282222
20
7790427.605506005
10
600790.1658935685
20
7790454.834240355
10
600784.971162006
20
7790481.828146538
10
600779.0936643837
20
7790508.703359032
10
600772.2987901561
20
7790535.5056778705
10
600764.2620287093
20
7790562.17990415
10
600754.62736379
20
7790588.558714053
10
600743.0689170622
20
7790614.373251865
10
600729.3457898345
20
7790639.283722734
10
600713.3413947648
20
7790662.924648779
10
600695.0813590708
20
7790684.956756109
10
600674.7278287974
20
7790705.116164834
10
600652.5520604319
20
7790723.251896443
10
600628.8908533612
20
7790739.344645243
10
600604.0950278849
20
7790753.502957869
10
600578.4793417229
20
7790765.936879977
10
600552.2827720111
20
7790776.913087007
10
600525.6460662517
20
7790786.698829614
10
600498.610251019
20
7790795.504114638
10
600471.1359531231
20
7790803.432037668
10
600443.1396113287
20
7790810.4459845945
10
600414.5396017716
20
7790816.359718966
10
600385.303502661
20
7790820.852620174
10
600355.4874979605
20
7790823.508167174
10
600325.2603038193
20
7790823.869880153
10
600294.9067514389
20
7790821.505997572
10
600264.8097920334
20
7790816.0726774465
10
600235.4135644522
20
7790807.365722875
10
600207.1736009638
20
7790795.3527067015
10
600180.5026340778
20
7790780.180589905
10
600155.7213810344
20
7790762.157945921
10
600133.0229528804
20
7790741.715037448
10
600112.4572786046
20
7790719.34854493
10
600093.9385353657
20
7790695.560120799
10
600077.2746183568
20
7790670.798748708
10
600062.2138533904
20
7790645.416000883
10
600048.5011185079
20
7790619.640878275
10
600035.9338303095
20
7790593.577416173
10
600024.4081718285
20
7790567.224255869
10
600013.9475165566
20
7790540.511612838
10
600004.7079766353
20
7790513.348163727
10
599996.9598693551
20
7790485.668824385
10
599991.0479961686
20
7790457.474455971
10
599987.3372608095
20
7790428.856189759
10
599986.1526940125
20
7790400
10
599987.7239632838
20
7790371.170851111
10
599992.1437496844
20
7790342.679542142
10
599999.3470841027
20
7790314.838593774
10
600009.1152400211
20
7790287.915598713
10
600021.1036717568
20
7790262.093014646
10
600034.8894647168
20
7790237.442316383
10
600050.0305105253
20
7790213.917921653
10
600066.1266860752
20
7790191.372798708
10
600082.8730264428
20
7790169.593766933
10
600100.0962803488
20
7790148.350899452
10
600117.7690781916
20
7790127.4527669065
10
600135.9997357154
20
7790106.798002567
10
600154.9998095119
20
7790086.414056299
10
600175.0352139474
20
7790066.475988909
10
600196.3693751543
20
7790047.30141179
10
600219.208088741
20
7790029.32164982
10
600243.6552725629
20
7790013.033220519
10
600269.6867612327
20
7789998.93709037
10
600297.1460424113
20
7789987.475307965
10
600325.761959363
20
7789978.975149811
10
600355.1845785641
20
7789973.60974729
10
600385.0323115756
20
7789971.381483218
10
600414.9415250786
20
7789972.130703416
10
600444.6095887116
20
7789975.568114845
10
600473.8236379761
20
7789981.3253440885
10
600502.4700273637
20
7789989.015167991
10
600530.523035451
20
7789998.29140257
10
600558.0152219022
20
7790008.898601631
10
600584.9952448072
20
7790020.703538897
10
600611.4813191213
20
7790033.7036104305
10
600637.4194077761
20
7790048.011252864
10
600662.6545166002
20
7790063.81754932
10
600686.9212288209
20
7790081.341692502
10
600709.8562474811
20
7790100.775300004
10
600731.0317981265
20
7790122.231340284
10
600750.0049628869
20
7790145.7065094495
10
600766.3750350877
20
7790171.063469269
10
600779.8393309178
20
7790198.035845235
10
600790.2378744578
20
7790226.2549041975
10
600797.579006937
20
7790255.293075706
10
600802.0409969229
20
7790284.7165992465
10
600803.948640082
20
7790314.138065973
10
600803.72797441
20
7790343.259733484
10
600801.8458961931
20
7790371.900197587
0
POINT
5
1A
8
DH
62
4
10
600530
20
7790400
30
0.0
0
POINT
5
1B
8
DH
62
4
10
600595.2581862999
20
7790494.031386636
30
0.0
0
POINT
5
1C
8
DH
62
4
10
600509.9805605774
20
7790537.911260878
30
0.0
0
POINT
5
1D
8
DH
62
4
10
600415.1539082867
20
7790466.393610275
30
0.0
0
POINT
5
1E
8
DH
62
4
10
600388.7651225446
20
7790449.223214312
30
0.0
0
POINT
5
1F
8
DH
62
4
10
600306.8750650709
20
7790516.774974848
30
0.0
0
POINT
5
20
8
DH
62
4
10
600201.9049651036
20
7790495.397540918
30
0.0
0
POINT
5
21
8
DH
62
4
10
600241.2811473885
20
7790400
30
0.0
0
POINT
5
22
8
DH
62
4
10
600350.0001760732
20
7790375.921353852
30
0.0
0
POINT
5
23
8
DH
62
4
10
600361.7043351965
20
7790351.978755232
30
0.0
0
POINT
5
24
8
DH
62
4
10
600362.657642055
20
7790236.392439938
30
0.0
0
POINT
5
25
8
DH
62
4
10
600448.6896891326
20
7790186.676533633
30
0.0
0
POINT
5
26
8
DH
62
4
10
600487.1001715406
20
7790290.779839484
30
0.0
0
POINT
5
27
8
DH
62
4
10
600441.7858899368
20
7790379.876975982
30
0.0
0
ENDSEC
0
EOF
