0
SECTION
2
HEADER
9
$ACADVER
1
AC1015
9
$INSUNITS
70
4
9
$HANDSEED
5
10000
0
ENDSEC
0
SECTION
2
TABLES
0
TABLE
2
LTYPE
70
1
0
LTYPE
5
1
2
CONTINUOUS
70
0
3
Solid line
72
65
73
0
40
0.0
0
ENDTAB
0
TABLE
2
LAYER
70
4
0
LAYER
5
2
2
0
70
0
62
7
6
CONTINUOUS
0
LAYER
5
3
2
OUTLINE
70
0
62
7
6
CONTINUOUS
0
LAYER
5
4
2
SCREEN
70
0
62
7
6
CONTINUOUS
0
LAYER
5
5
2
HOLE
70
0
62
7
6
CONTINUOUS
0
ENDTAB
0
ENDSEC
0
SECTION
2
BLOCKS
0
ENDSEC
0
SECTION
2
ENTITIES
0
LWPOLYLINE
5
6
8
OUTLINE
62
7
90
8
70
1
10
10
20
0.0
10
110
20
0.0
42
0.41421356237309503
10
120
20
10
10
120
20
70
42
0.41421356237309503
10
110
20
80
10
10
20
80
42
0.41421356237309503
10
0.0
20
70
10
0.0
20
10
42
0.41421356237309503
0
CIRCLE
5
7
8
SCREEN
62
4
10
60
20
40
30
0.0
40
22
0
CIRCLE
5
8
8
HOLE
62
2
10
18
20
16
30
0.0
40
4
0
CIRCLE
5
9
8
HOLE
62
2
10
18
20
64
30
0.0
40
4
0
CIRCLE
5
A
8
HOLE
62
2
10
102
20
16
30
0.0
40
4
0
CIRCLE
5
B
8
HOLE
62
2
10
102
20
64
30
0.0
40
4
0
ENDSEC
0
EOF
