0
SECTION
2
HEADER
9
$ACADVER
1
AC1015
9
$INSUNITS
70
6
9
$HANDSEED
5
10000
0
ENDSEC
0
SECTION
2
TABLES
0
TABLE
2
LTYPE
70
1
0
LTYPE
5
1
2
CONTINUOUS
70
0
3
Solid line
72
65
73
0
40
0.0
0
ENDTAB
0
TABLE
2
LAYER
70
6
0
LAYER
5
2
2
0
70
0
62
7
6
CONTINUOUS
0
LAYER
5
3
2
CREST
70
0
62
7
6
CONTINUOUS
0
LAYER
5
4
2
BENCH
70
0
62
7
6
CONTINUOUS
0
LAYER
5
5
2
RAMP
70
0
62
7
6
CONTINUOUS
0
LAYER
5
6
2
COLLAR
70
0
62
7
6
CONTINUOUS
0
LAYER
5
7
2
SECTION
70
0
62
7
6
CONTINUOUS
0
ENDTAB
0
ENDSEC
0
SECTION
2
BLOCKS
0
ENDSEC
0
SECTION
2
ENTITIES
0
LWPOLYLINE
5
8
8
CREST
62
1
90
48
70
1
10
600573.7950492668
20
7790300
10
600566.3255092378
20
7790335.062418463
10
600556.1482137411
20
7790368.634707015
10
600543.9044246345
20
7790401.028520606
10
600529.71511479
20
7790432.626083361
10
600513.2131632097
20
7790463.604214323
10
600493.7184574598
20
7790493.7184574595
10
600470.5073041134
20
7790522.2094449755
10
600443.1024753667
20
7790547.860758024
10
600411.5049126121
20
7790569.196672299
10
600376.3039582428
20
7790584.77024898
10
600338.6357206779
20
7790593.467434237
10
600300
20
7790594.747833278
10
600261.984156522
20
7790588.758999446
10
600225.9672113549
20
7790576.29412865
10
600192.8826501283
20
7790558.604158825
10
600163.1024753667
20
7790537.113468096
10
600136.4723002745
20
7790513.1134474445
10
600112.4864932734
20
7790487.513506726
10
600090.5545223308
20
7790460.713167526
10
600070.28488521
20
7790432.626083361
10
600051.708012625
20
7790402.845908599
10
600035.3756659279
20
7790370.905876612
10
600022.3073236338
20
7790336.558934405
10
600013.7950492668
20
7790300
10
600011.1163868684
20
7790261.967750819
10
600015.2297510193
20
7790223.696041757
10
600026.5318864282
20
7790186.725798482
10
600044.7408886708
20
7790152.626083361
10
600068.9352926466
20
7790122.697814078
10
600097.7386599954
20
7790097.738659996
10
600129.6009038684
20
7790077.931574413
10
600163.1024753667
20
7790062.886531904
10
600197.2021904876
20
7790051.824134093
10
600231.3652929853
20
7790043.851786259
10
600265.5410530347
20
7790038.258311868
10
600300
20
7790034.747833278
10
600335.0788241652
20
7790033.549877077
10
600370.9058766123
20
7790035.375665928
10
600407.1853722527
20
7790041.231620619
10
600443.1024753667
20
7790052.139241976
10
600477.3787005194
20
7790068.835576882
10
600508.4662907379
20
7790091.5337092625
10
600534.8323928938
20
7790119.806767281
10
600555.2591113292
20
7790152.626083361
10
600569.0805508314
20
7790188.543186475
10
600576.2941286499
20
7790225.9672113545
10
600577.5164460032
20
7790263.464266762
0
LWPOLYLINE
5
9
8
BENCH
62
2
90
48
70
1
10
600525.6875505716
20
7790300
10
600521.9902042105
20
7790329.225564824
10
600515.451437977
20
7790357.730038814
10
600506.2612275681
20
7790385.436197851
10
600494.410689999
20
7790412.243064204
10
600479.7390782398
20
7790437.918645528
10
600462.0338485914
20
7790462.033848591
10
600441.1560184837
20
7790483.958104817
10
600417.1562247142
20
7790502.920533628
10
600390.3493583604
20
7790518.122646306
10
600361.3267219331
20
7790528.874442116
10
600330.9013523784
20
7790534.719074417
10
600300
20
7790535.513871592
10
600269.5294631416
20
7790531.44670566
10
600240.2517441103
20
7790522.983526644
10
600212.7000038739
20
7790510.760834643
10
600187.1562247142
20
7790495.451152113
10
600163.694816317
20
7790477.636373825
10
600142.278600837
20
7790457.721399163
10
600122.8794684747
20
7790435.909363965
10
600105.589310001
20
7790412.243064204
10
600090.6894101974
20
7790386.699285044
10
600078.6576465513
20
7790359.308504857
10
600070.1095987546
20
7790330.265645496
10
600065.6875505716
20
7790300
10
600065.9255679786
20
7790269.183516403
10
600071.1255578841
20
7790238.673278067
10
600081.276642613
20
7790209.401818963
10
600096.0390042581
20
7790182.243064204
10
600114.7965417058
20
7790157.888388184
10
600136.7647292456
20
7790136.764729246
10
600161.1257611397
20
7790119.015568283
10
600187.1562247142
20
7790104.548847887
10
600214.3149794724
20
7790093.13806135
10
600242.269961186
20
7790084.548562023
10
600270.8593039572
20
7790078.654438185
10
600300
20
7790075.513871592
10
600329.5715115628
20
7790075.3820694275
10
600359.3085048574
20
7790078.657646552
10
600388.7343827619
20
7790085.776249687
10
600417.1562247142
20
7790097.079466372
10
600443.725073661
20
7790112.693837292
10
600467.5477201828
20
7790132.452279817
10
600487.8220050086
20
7790155.87910662
10
600503.9609957419
20
7790182.243064204
10
600515.6739951527
20
7790210.664906156
10
600522.9835266443
20
7790240.25174411
10
600526.1742349864
20
7790270.223597074
0
LWPOLYLINE
5
A
8
BENCH
62
2
90
48
70
1
10
600474.3919315499
20
7790300
10
600471.7337909561
20
7790322.609182499
10
600467.1749759463
20
7790344.7943998
10
600460.7398408892
20
7790366.58062211
10
600452.2566013205
20
7790387.905389759
10
600441.4356854145
20
7790408.527418482
10
600427.9886445969
20
7790427.988644597
10
600411.7552265465
20
7790445.642246783
10
600392.8040342251
20
7790460.741302425
10
600371.4792665768
20
7790472.566214798
10
600348.3804564374
20
7790480.558321518
10
600324.2800189017
20
7790484.425053429
10
600300
20
7790484.189220483
10
600276.280229506
20
7790480.169544283
10
600253.6722390815
20
7790472.897557548
10
600232.4862366536
20
7790462.992643118
10
600212.8040342251
20
7790451.027842937
10
600194.5529781186
20
7790437.4212344065
10
600177.6194238532
20
7790422.380576147
10
600161.9695694083
20
7790405.914474555
10
600147.7433986795
20
7790387.905389759
10
600135.2946558803
20
7790368.223187329
10
600125.1642600846
20
7790346.847095318
10
600117.9925011484
20
7790323.961741803
10
600114.3919315499
20
7790300
10
600114.8136408614
20
7790275.6197533
10
600119.4416784822
20
7790251.619543563
10
600128.1432091852
20
7790228.814586459
10
600140.4874559582
20
7790207.905389759
10
600155.8284829097
20
7790189.373304038
10
600173.4302033698
20
7790173.43020337
10
600192.6011121033
20
7790160.035044278
10
600212.8040342251
20
7790148.972157063
10
600233.7132309254
20
7790139.969583094
10
600255.2056002005
20
7790132.825024053
10
600277.2905897024
20
7790127.504903334
10
600300
20
7790124.189220483
10
600323.2696587052
20
7790123.249394189
10
600346.8470953184
20
7790125.164260085
10
600370.2522723051
20
7790130.396011413
10
600392.8040342251
20
7790139.258697575
10
600413.7070925618
20
7790151.814031902
10
600432.1778650803
20
7790167.822134919
10
600447.5767719132
20
7790186.760360112
10
600459.5125440418
20
7790207.905389759
10
600467.8912875843
20
7790230.457151678
10
600472.8975575487
20
7790253.672239082
10
600474.9126512429
20
7790276.972312604
0
LWPOLYLINE
5
B
8
BENCH
62
2
90
48
70
1
10
600423.4892583487
20
7790300
10
600421.948674592
20
7790316.054847588
10
600419.367385663
20
7790331.984394591
10
600415.6079251172
20
7790347.8863705015
10
600410.3567171326
20
7790363.714480343
10
600403.2281396383
20
7790379.209737463
10
600393.8937327233
20
7790393.893732723
10
600382.2018147652
20
7790407.127490696
10
600368.2553708256
20
7790418.22177016
10
600352.4272609836
20
7790426.570604505
10
600335.3085571356
20
7790431.773329172
10
600317.6036607678
20
7790433.713078676
10
600300
20
7790432.571039313
10
600283.046765074
20
7790428.772603913
10
600267.0745397062
20
7790422.879490679
10
600252.1765285885
20
7790415.456073281
10
600238.2553708256
20
7790406.944834825
10
600225.1217568393
20
7790397.58322636
10
600212.617008928
20
7790387.382991072
10
600200.7252240921
20
7790376.17621478
10
600189.6432828674
20
7790363.714480343
10
600179.7882853105
20
7790349.793322581
10
600171.7387758438
20
7790334.367491432
10
600166.1239642312
20
7790317.625114476
10
600163.4892583487
20
7790300
10
600164.1730106347
20
7790282.11803761
10
600168.2266708278
20
7790264.691442864
10
600175.3992466644
20
7790248.388678087
10
600185.1901121486
20
7790233.714480343
10
600196.9562711625
20
7790220.931765921
10
600210.0459696148
20
7790210.045969615
10
600223.923843223
20
7790200.85562222
10
600238.2553708256
20
7790193.055165175
10
600252.9295685687
20
7790186.361926052
10
600268.0156054089
20
7790180.632614337
10
600283.6668507906
20
7790175.937414719
10
600300
20
7790172.571039313
10
600316.9835750512
20
7790170.996939956
10
600334.3674914329
20
7790171.738775844
10
600351.6742210035
20
7790175.247394828
10
600368.2553708256
20
7790181.77822984
10
600383.3997283817
20
7790191.311357885
10
600396.4647720365
20
7790203.535227964
10
600406.9970925678
20
7790217.898243237
10
600414.8098878514
20
7790233.714480343
10
600419.9969637635
20
7790250.295630165
10
600422.879490679
20
7790267.074539706
10
600423.8996281885
20
7790283.688304499
0
LWPOLYLINE
5
C
8
BENCH
62
2
90
48
70
1
10
600383.7674706604
20
7790300
10
600380.5294732909
20
7790310.601906288
10
600376.555469784
20
7790320.512976305
10
600372.2124691854
20
7790329.911384109
10
600367.6446930611
20
7790339.054681748
10
600362.7586527456
20
7790348.156407981
10
600357.2750228188
20
7790357.275022819
10
600350.8326606053
20
7790366.24641307
10
600343.1162646698
20
7790374.67956104
10
600333.9729670307
20
7790382.017997759
10
600323.4862613627
20
7790387.651920686
10
600311.9872365855
20
7790391.052101594
10
600300
20
7790391.890636504
10
600288.1358936162
20
7790390.116834858
10
600276.9648756866
20
7790385.968254296
10
600266.8985628234
20
7790379.913938566
10
600258.1162646698
20
7790372.544757603
10
600250.5537431805
20
7790364.439616479
10
600243.9575065208
20
7790356.042493479
10
600237.9897469066
20
7790347.58214073
10
600232.3553069389
20
7790339.054681748
10
600226.9160009606
20
7790330.272383595
10
600221.7608638272
20
7790320.964113354
10
600217.2125930693
20
7790310.899168891
10
600213.7674706604
20
7790300
10
600211.9838468573
20
7790288.41245361
10
600212.3480793148
20
7790276.513738638
10
600215.1529486583
20
7790264.855200607
10
600220.4203744178
20
7790254.054681748
10
600227.8885848962
20
7790244.66696505
10
600237.0668700171
20
7790237.066870017
10
600247.3432176738
20
7790231.37634522
10
600258.1162646698
20
7790227.455242397
10
600268.9167835286
20
7790224.958477233
10
600279.4870236953
20
7790223.444530216
10
600289.7977839081
20
7790222.506475161
10
600300
20
7790221.890636504
10
600310.3253462936
20
7790221.571208425
10
600320.964113354
20
7790221.760863828
10
600331.9547463254
20
7790222.854418039
10
600343.1162646698
20
7790225.32043896
10
600354.043186112
20
7790229.56954863
10
600364.1656593225
20
7790235.834340678
10
600372.8598147561
20
7790244.092697798
10
600379.5796255822
20
7790254.054681748
10
600383.9755214875
20
7790265.216200093
10
600385.9682542963
20
7790276.964875687
10
600385.7582195029
20
7790288.709716214
0
LWPOLYLINE
5
D
8
RAMP
62
6
90
91
70
0
10
600580
20
7790300
10
600575.129478432
20
7790338.66692655
10
600564.9878075137
20
7790375.984031087
10
600549.8546826652
20
7790411.242471881
10
600530.1037167571
20
7790443.784760362
10
600506.1936292729
20
7790473.016998274
10
600478.6578718978
20
7790498.4196684025
10
600448.0929206025
20
7790519.556783798
10
600415.1454878899
20
7790536.083236162
10
600380.4989270347
20
7790547.750222495
10
600344.859112564
20
7790554.408669529
10
600308.9400877387
20
7790556.010616855
10
600273.44977033
20
7790552.608561424
10
600239.0760026248
20
7790544.352807067
10
600206.4732205105
20
7790531.486902357
10
600176.25
20
7790514.341287437
10
600148.9577180535
20
7790493.325304884
10
600125.080538551
20
7790468.917760417
10
600105.0269043556
20
7790441.6562458025
10
600089.1226832388
20
7790412.125458245
10
600077.6060797473
20
7790380.9447672535
10
600070.6243876279
20
7790348.755291496
10
600068.2326189897
20
7790316.206754067
10
600070.3940077652
20
7790283.9443849595
10
600076.9823470326
20
7790252.596134493
10
600087.7860831391
20
7790222.760450966
10
600102.5140550638
20
7790194.994860457
10
600120.8027357459
20
7790169.805566617
10
600142.2248037924
20
7790147.63826408
10
600166.2988496084
20
7790128.870331341
10
600192.5
20
7790113.804538187
10
600220.2712300346
20
7790102.664369619
10
600249.0351206603
20
7790095.5910336645
10
600278.2058154087
20
7790092.642184815
10
600307.2009294863
20
7790093.792359359
10
600335.453169607
20
7790098.93508376
10
600362.4214328637
20
7790107.886583708
10
600387.6011675
20
7790120.390989748
10
600410.5337972527
20
7790136.126906492
10
600430.8150335432
20
7790154.715186619
10
600448.1019256697
20
7790175.727728794
10
600462.1185277152
20
7790198.697100654
10
600472.6600914944
20
7790223.126774458
10
600479.5957268578
20
7790248.501754021
10
600482.8695033609
20
7790274.299367356
10
600482.5
20
7790300
10
600478.5783417297
20
7790325.097549207
10
600471.2647921597
20
7790349.109388894
10
600460.784000545
20
7790371.585649181
10
600447.4190273818
20
7790392.117632099
10
600431.5042960688
20
7790410.34520633
10
600413.4176377779
20
7790425.963047919
10
600393.5716125141
20
7790438.725620475
10
600372.404301078
20
7790448.450816647
10
600350.3697700831
20
7790455.022212156
10
600327.9284152414
20
7790458.389913609
10
600305.5373868102
20
7790458.57001122
10
600283.6412954986
20
7790455.642676625
10
600262.6633874457
20
7790449.748973755
10
600242.9973633685
20
7790441.0864765365
10
600225
20
7790429.903810567
10
600208.9847118977
20
7790416.494256408
10
600195.216169084
20
7790401.188569297
10
600183.9060613072
20
7790384.347183704
10
600175.2100735425
20
7790366.351980873
10
600169.226110274
20
7790347.59780328
10
600165.9937786994
20
7790328.483901642
10
600165.4951138899
20
7790309.405497877
10
600167.6565026655
20
7790290.74564115
10
600172.3517381042
20
7790272.867524348
10
600179.4061136658
20
7790256.107414939
10
600188.6014453677
20
7790240.768337828
10
600199.6818926975
20
7790227.114628715
10
600212.3604343254
20
7790215.367455199
10
600226.3258434527
20
7790205.701379819
10
600241.25
20
7790198.242015055
10
600256.7953728928
20
7790193.06479544
10
600272.6225054814
20
7790190.194866977
10
600288.3973405773
20
7790189.6080696145
10
600303.7982285578
20
7790191.2329649925
10
600318.5224722845
20
7790194.953839678
10
600332.2922759121
20
7790200.614594047
10
600344.8599806881
20
7790208.023409262
10
600356.0124891644
20
7790216.958069815
10
600365.5747994232
20
7790227.171807103
10
600373.4125924655
20
7790238.399520738
10
600379.43383834
20
7790250.364228917
10
600383.5894093743
20
7790262.783597158
10
600385.8727115039
20
7790275.376396214
10
600386.3183666586
20
7790287.868744699
10
600385
20
7790300
0
POINT
5
E
8
COLLAR
62
4
10
600040
20
7790240
30
0.0
0
POINT
5
F
8
COLLAR
62
4
10
600040
20
7790280
30
0.0
0
POINT
5
10
8
COLLAR
62
4
10
600040
20
7790320
30
0.0
0
POINT
5
11
8
COLLAR
62
4
10
600040
20
7790360
30
0.0
0
POINT
5
12
8
COLLAR
62
4
10
600080
20
7790160
30
0.0
0
POINT
5
13
8
COLLAR
62
4
10
600080
20
7790200
30
0.0
0
POINT
5
14
8
COLLAR
62
4
10
600080
20
7790240
30
0.0
0
POINT
5
15
8
COLLAR
62
4
10
600080
20
7790280
30
0.0
0
POINT
5
16
8
COLLAR
62
4
10
600080
20
7790320
30
0.0
0
POINT
5
17
8
COLLAR
62
4
10
600080
20
7790360
30
0.0
0
POINT
5
18
8
COLLAR
62
4
10
600080
20
7790400
30
0.0
0
POINT
5
19
8
COLLAR
62
4
10
600080
20
7790440
30
0.0
0
POINT
5
1A
8
COLLAR
62
4
10
600120
20
7790120
30
0.0
0
POINT
5
1B
8
COLLAR
62
4
10
600120
20
7790160
30
0.0
0
POINT
5
1C
8
COLLAR
62
4
10
600120
20
7790200
30
0.0
0
POINT
5
1D
8
COLLAR
62
4
10
600120
20
7790240
30
0.0
0
POINT
5
1E
8
COLLAR
62
4
10
600120
20
7790280
30
0.0
0
POINT
5
1F
8
COLLAR
62
4
10
600120
20
7790320
30
0.0
0
POINT
5
20
8
COLLAR
62
4
10
600120
20
7790360
30
0.0
0
POINT
5
21
8
COLLAR
62
4
10
600120
20
7790400
30
0.0
0
POINT
5
22
8
COLLAR
62
4
10
600120
20
7790440
30
0.0
0
POINT
5
23
8
COLLAR
62
4
10
600120
20
7790480
30
0.0
0
POINT
5
24
8
COLLAR
62
4
10
600160
20
7790080
30
0.0
0
POINT
5
25
8
COLLAR
62
4
10
600160
20
7790120
30
0.0
0
POINT
5
26
8
COLLAR
62
4
10
600160
20
7790160
30
0.0
0
POINT
5
27
8
COLLAR
62
4
10
600160
20
7790200
30
0.0
0
POINT
5
28
8
COLLAR
62
4
10
600160
20
7790240
30
0.0
0
POINT
5
29
8
COLLAR
62
4
10
600160
20
7790280
30
0.0
0
POINT
5
2A
8
COLLAR
62
4
10
600160
20
7790320
30
0.0
0
POINT
5
2B
8
COLLAR
62
4
10
600160
20
7790360
30
0.0
0
POINT
5
2C
8
COLLAR
62
4
10
600160
20
7790400
30
0.0
0
POINT
5
2D
8
COLLAR
62
4
10
600160
20
7790440
30
0.0
0
POINT
5
2E
8
COLLAR
62
4
10
600160
20
7790480
30
0.0
0
POINT
5
2F
8
COLLAR
62
4
10
600160
20
7790520
30
0.0
0
POINT
5
30
8
COLLAR
62
4
10
600200
20
7790080
30
0.0
0
POINT
5
31
8
COLLAR
62
4
10
600200
20
7790120
30
0.0
0
POINT
5
32
8
COLLAR
62
4
10
600200
20
7790160
30
0.0
0
POINT
5
33
8
COLLAR
62
4
10
600200
20
7790200
30
0.0
0
POINT
5
34
8
COLLAR
62
4
10
600200
20
7790240
30
0.0
0
POINT
5
35
8
COLLAR
62
4
10
600200
20
7790280
30
0.0
0
POINT
5
36
8
COLLAR
62
4
10
600200
20
7790320
30
0.0
0
POINT
5
37
8
COLLAR
62
4
10
600200
20
7790360
30
0.0
0
POINT
5
38
8
COLLAR
62
4
10
600200
20
7790400
30
0.0
0
POINT
5
39
8
COLLAR
62
4
10
600200
20
7790440
30
0.0
0
POINT
5
3A
8
COLLAR
62
4
10
600200
20
7790480
30
0.0
0
POINT
5
3B
8
COLLAR
62
4
10
600200
20
7790520
30
0.0
0
POINT
5
3C
8
COLLAR
62
4
10
600240
20
7790040
30
0.0
0
POINT
5
3D
8
COLLAR
62
4
10
600240
20
7790080
30
0.0
0
POINT
5
3E
8
COLLAR
62
4
10
600240
20
7790120
30
0.0
0
POINT
5
3F
8
COLLAR
62
4
10
600240
20
7790160
30
0.0
0
POINT
5
40
8
COLLAR
62
4
10
600240
20
7790200
30
0.0
0
POINT
5
41
8
COLLAR
62
4
10
600240
20
7790240
30
0.0
0
POINT
5
42
8
COLLAR
62
4
10
600240
20
7790280
30
0.0
0
POINT
5
43
8
COLLAR
62
4
10
600240
20
7790320
30
0.0
0
POINT
5
44
8
COLLAR
62
4
10
600240
20
7790360
30
0.0
0
POINT
5
45
8
COLLAR
62
4
10
600240
20
7790400
30
0.0
0
POINT
5
46
8
COLLAR
62
4
10
600240
20
7790440
30
0.0
0
POINT
5
47
8
COLLAR
62
4
10
600240
20
7790480
30
0.0
0
POINT
5
48
8
COLLAR
62
4
10
600240
20
7790520
30
0.0
0
POINT
5
49
8
COLLAR
62
4
10
600240
20
7790560
30
0.0
0
POINT
5
4A
8
COLLAR
62
4
10
600280
20
7790040
30
0.0
0
POINT
5
4B
8
COLLAR
62
4
10
600280
20
7790080
30
0.0
0
POINT
5
4C
8
COLLAR
62
4
10
600280
20
7790120
30
0.0
0
POINT
5
4D
8
COLLAR
62
4
10
600280
20
7790160
30
0.0
0
POINT
5
4E
8
COLLAR
62
4
10
600280
20
7790200
30
0.0
0
POINT
5
4F
8
COLLAR
62
4
10
600280
20
7790240
30
0.0
0
POINT
5
50
8
COLLAR
62
4
10
600280
20
7790280
30
0.0
0
POINT
5
51
8
COLLAR
62
4
10
600280
20
7790320
30
0.0
0
POINT
5
52
8
COLLAR
62
4
10
600280
20
7790360
30
0.0
0
POINT
5
53
8
COLLAR
62
4
10
600280
20
7790400
30
0.0
0
POINT
5
54
8
COLLAR
62
4
10
600280
20
7790440
30
0.0
0
POINT
5
55
8
COLLAR
62
4
10
600280
20
7790480
30
0.0
0
POINT
5
56
8
COLLAR
62
4
10
600280
20
7790520
30
0.0
0
POINT
5
57
8
COLLAR
62
4
10
600280
20
7790560
30
0.0
0
POINT
5
58
8
COLLAR
62
4
10
600320
20
7790040
30
0.0
0
POINT
5
59
8
COLLAR
62
4
10
600320
20
7790080
30
0.0
0
POINT
5
5A
8
COLLAR
62
4
10
600320
20
7790120
30
0.0
0
POINT
5
5B
8
COLLAR
62
4
10
600320
20
7790160
30
0.0
0
POINT
5
5C
8
COLLAR
62
4
10
600320
20
7790200
30
0.0
0
POINT
5
5D
8
COLLAR
62
4
10
600320
20
7790240
30
0.0
0
POINT
5
5E
8
COLLAR
62
4
10
600320
20
7790280
30
0.0
0
POINT
5
5F
8
COLLAR
62
4
10
600320
20
7790320
30
0.0
0
POINT
5
60
8
COLLAR
62
4
10
600320
20
7790360
30
0.0
0
POINT
5
61
8
COLLAR
62
4
10
600320
20
7790400
30
0.0
0
POINT
5
62
8
COLLAR
62
4
10
600320
20
7790440
30
0.0
0
POINT
5
63
8
COLLAR
62
4
10
600320
20
7790480
30
0.0
0
POINT
5
64
8
COLLAR
62
4
10
600320
20
7790520
30
0.0
0
POINT
5
65
8
COLLAR
62
4
10
600320
20
7790560
30
0.0
0
POINT
5
66
8
COLLAR
62
4
10
600360
20
7790040
30
0.0
0
POINT
5
67
8
COLLAR
62
4
10
600360
20
7790080
30
0.0
0
POINT
5
68
8
COLLAR
62
4
10
600360
20
7790120
30
0.0
0
POINT
5
69
8
COLLAR
62
4
10
600360
20
7790160
30
0.0
0
POINT
5
6A
8
COLLAR
62
4
10
600360
20
7790200
30
0.0
0
POINT
5
6B
8
COLLAR
62
4
10
600360
20
7790240
30
0.0
0
POINT
5
6C
8
COLLAR
62
4
10
600360
20
7790280
30
0.0
0
POINT
5
6D
8
COLLAR
62
4
10
600360
20
7790320
30
0.0
0
POINT
5
6E
8
COLLAR
62
4
10
600360
20
7790360
30
0.0
0
POINT
5
6F
8
COLLAR
62
4
10
600360
20
7790400
30
0.0
0
POINT
5
70
8
COLLAR
62
4
10
600360
20
7790440
30
0.0
0
POINT
5
71
8
COLLAR
62
4
10
600360
20
7790480
30
0.0
0
POINT
5
72
8
COLLAR
62
4
10
600360
20
7790520
30
0.0
0
POINT
5
73
8
COLLAR
62
4
10
600360
20
7790560
30
0.0
0
POINT
5
74
8
COLLAR
62
4
10
600400
20
7790080
30
0.0
0
POINT
5
75
8
COLLAR
62
4
10
600400
20
7790120
30
0.0
0
POINT
5
76
8
COLLAR
62
4
10
600400
20
7790160
30
0.0
0
POINT
5
77
8
COLLAR
62
4
10
600400
20
7790200
30
0.0
0
POINT
5
78
8
COLLAR
62
4
10
600400
20
7790240
30
0.0
0
POINT
5
79
8
COLLAR
62
4
10
600400
20
7790280
30
0.0
0
POINT
5
7A
8
COLLAR
62
4
10
600400
20
7790320
30
0.0
0
POINT
5
7B
8
COLLAR
62
4
10
600400
20
7790360
30
0.0
0
POINT
5
7C
8
COLLAR
62
4
10
600400
20
7790400
30
0.0
0
POINT
5
7D
8
COLLAR
62
4
10
600400
20
7790440
30
0.0
0
POINT
5
7E
8
COLLAR
62
4
10
600400
20
7790480
30
0.0
0
POINT
5
7F
8
COLLAR
62
4
10
600400
20
7790520
30
0.0
0
POINT
5
80
8
COLLAR
62
4
10
600440
20
7790080
30
0.0
0
POINT
5
81
8
COLLAR
62
4
10
600440
20
7790120
30
0.0
0
POINT
5
82
8
COLLAR
62
4
10
600440
20
7790160
30
0.0
0
POINT
5
83
8
COLLAR
62
4
10
600440
20
7790200
30
0.0
0
POINT
5
84
8
COLLAR
62
4
10
600440
20
7790240
30
0.0
0
POINT
5
85
8
COLLAR
62
4
10
600440
20
7790280
30
0.0
0
POINT
5
86
8
COLLAR
62
4
10
600440
20
7790320
30
0.0
0
POINT
5
87
8
COLLAR
62
4
10
600440
20
7790360
30
0.0
0
POINT
5
88
8
COLLAR
62
4
10
600440
20
7790400
30
0.0
0
POINT
5
89
8
COLLAR
62
4
10
600440
20
7790440
30
0.0
0
POINT
5
8A
8
COLLAR
62
4
10
600440
20
7790480
30
0.0
0
POINT
5
8B
8
COLLAR
62
4
10
600440
20
7790520
30
0.0
0
POINT
5
8C
8
COLLAR
62
4
10
600480
20
7790120
30
0.0
0
POINT
5
8D
8
COLLAR
62
4
10
600480
20
7790160
30
0.0
0
POINT
5
8E
8
COLLAR
62
4
10
600480
20
7790200
30
0.0
0
POINT
5
8F
8
COLLAR
62
4
10
600480
20
7790240
30
0.0
0
POINT
5
90
8
COLLAR
62
4
10
600480
20
7790280
30
0.0
0
POINT
5
91
8
COLLAR
62
4
10
600480
20
7790320
30
0.0
0
POINT
5
92
8
COLLAR
62
4
10
600480
20
7790360
30
0.0
0
POINT
5
93
8
COLLAR
62
4
10
600480
20
7790400
30
0.0
0
POINT
5
94
8
COLLAR
62
4
10
600480
20
7790440
30
0.0
0
POINT
5
95
8
COLLAR
62
4
10
600480
20
7790480
30
0.0
0
POINT
5
96
8
COLLAR
62
4
10
600520
20
7790160
30
0.0
0
POINT
5
97
8
COLLAR
62
4
10
600520
20
7790200
30
0.0
0
POINT
5
98
8
COLLAR
62
4
10
600520
20
7790240
30
0.0
0
POINT
5
99
8
COLLAR
62
4
10
600520
20
7790280
30
0.0
0
POINT
5
9A
8
COLLAR
62
4
10
600520
20
7790320
30
0.0
0
POINT
5
9B
8
COLLAR
62
4
10
600520
20
7790360
30
0.0
0
POINT
5
9C
8
COLLAR
62
4
10
600520
20
7790400
30
0.0
0
POINT
5
9D
8
COLLAR
62
4
10
600520
20
7790440
30
0.0
0
POINT
5
9E
8
COLLAR
62
4
10
600560
20
7790240
30
0.0
0
POINT
5
9F
8
COLLAR
62
4
10
600560
20
7790280
30
0.0
0
POINT
5
A0
8
COLLAR
62
4
10
600560
20
7790320
30
0.0
0
POINT
5
A1
8
COLLAR
62
4
10
600560
20
7790360
30
0.0
0
LINE
5
A2
8
SECTION
62
7
10
599960
20
7790300
30
0.0
11
600640
21
7790300
31
0.0
0
LINE
5
A3
8
SECTION
62
7
10
600300
20
7789960
30
0.0
11
600300
21
7790640
31
0.0
0
ENDSEC
0
EOF
