0
SECTION
2
HEADER
9
$ACADVER
1
AC1015
9
$INSUNITS
70
6
9
$HANDSEED
5
10000
0
ENDSEC
0
SECTION
2
TABLES
0
TABLE
2
LTYPE
70
1
0
LTYPE
5
1
2
CONTINUOUS
70
0
3
Solid line
72
65
73
0
40
0.0
0
ENDTAB
0
TABLE
2
LAYER
70
3
0
LAYER
5
2
2
0
70
0
62
7
6
CONTINUOUS
0
LAYER
5
3
2
FLOWER
70
0
62
7
6
CONTINUOUS
0
LAYER
5
4
2
SPIRO
70
0
62
7
6
CONTINUOUS
0
ENDTAB
0
ENDSEC
0
SECTION
2
BLOCKS
0
ENDSEC
0
SECTION
2
ENTITIES
0
CIRCLE
5
5
8
FLOWER
62
4
10
0.0
20
0.0
30
0.0
40
60
0
CIRCLE
5
6
8
FLOWER
62
4
10
60
20
0.0
30
0.0
40
60
0
CIRCLE
5
7
8
FLOWER
62
4
10
30.000000000000007
20
51.96152422706631
30
0.0
40
60
0
CIRCLE
5
8
8
FLOWER
62
4
10
-29.999999999999986
20
51.96152422706632
30
0.0
40
60
0
CIRCLE
5
9
8
FLOWER
62
4
10
-60
20
0.0
30
0.0
40
60
0
CIRCLE
5
A
8
FLOWER
62
4
10
-30.00000000000003
20
-51.961524227066306
30
0.0
40
60
0
CIRCLE
5
B
8
FLOWER
62
4
10
30.000000000000007
20
-51.96152422706631
30
0.0
40
60
0
CIRCLE
5
C
8
FLOWER
62
4
10
120
20
0.0
30
0.0
40
60
0
CIRCLE
5
D
8
FLOWER
62
4
10
90
20
51.961524227066306
30
0.0
40
60
0
CIRCLE
5
E
8
FLOWER
62
4
10
60.000000000000014
20
103.92304845413263
30
0.0
40
60
0
CIRCLE
5
F
8
FLOWER
62
4
10
0.0
20
103.92304845413263
30
0.0
40
60
0
CIRCLE
5
10
8
FLOWER
62
4
10
-59.99999999999997
20
103.92304845413264
30
0.0
40
60
0
CIRCLE
5
11
8
FLOWER
62
4
10
-90
20
51.961524227066306
30
0.0
40
60
0
CIRCLE
5
12
8
FLOWER
62
4
10
-120
20
0.0
30
0.0
40
60
0
CIRCLE
5
13
8
FLOWER
62
4
10
-90.00000000000001
20
-51.961524227066285
30
0.0
40
60
0
CIRCLE
5
14
8
FLOWER
62
4
10
-60.00000000000006
20
-103.92304845413261
30
0.0
40
60
0
CIRCLE
5
15
8
FLOWER
62
4
10
-0.0
20
-103.92304845413263
30
0.0
40
60
0
CIRCLE
5
16
8
FLOWER
62
4
10
60.000000000000014
20
-103.92304845413263
30
0.0
40
60
0
CIRCLE
5
17
8
FLOWER
62
4
10
89.99999999999996
20
-51.961524227066356
30
0.0
40
60
0
LWPOLYLINE
5
18
8
SPIRO
62
6
90
1601
70
0
10
206
20
0.0
10
203.2835128907143
20
-11.18538132211398
10
195.28363203140339
20
-21.21522253530197
10
182.44006063685862
20
-29.006464125011995
10
165.45606016553307
20
-33.61658461382464
10
145.2559762197621
20
-34.30308109257686
10
122.92943976160315
20
-30.570741458123564
10
99.66563935302452
20
-22.203820530183258
10
76.68166415171443
20
-9.28115167017171
10
55.149277863456284
20
7.826735119383677
10
36.124578820514266
20
28.47832166825237
10
20.48482504223378
20
51.79838389833006
10
8.876266278249659
20
76.72958549580906
10
1.6761542412396722
20
102.09524876674388
10
-1.028761644383522
20
126.66948741855755
10
0.5540499894831186
20
149.25043728113218
10
5.937194462521049
20
168.73213187923977
10
14.384773125008934
20
184.1706518106462
10
24.95901428680312
20
194.84052507738244
10
36.57926528687788
20
200.27794866031186
10
48.089744954316544
20
200.30820360192138
10
58.33192197848112
20
195.0555978350959
10
66.2171027825443
20
184.93533438930726
10
70.79479954952087
20
170.62780266697283
10
71.31270587249386
20
153.03686022570542
10
67.26461845225111
20
133.23464678706165
10
58.42337723188362
20
112.39629169248457
10
44.85680864415684
20
91.72849084142413
10
26.92569169969692
20
72.39630183851884
10
5.263861432216139
20
55.45261395382663
10
-19.25834792672177
20
41.7745859959537
10
-45.585102992438635
20
32.01092027197073
10
-72.53741772969877
20
26.543180338992173
10
-98.88305847957503
20
25.463504462440156
10
-123.40975903439137
20
28.570067701608792
10
-144.99729541698372
20
35.38056418091697
10
-162.6840391223601
20
45.16288322763883
10
-175.72394344455398
20
56.98110552201925
10
-183.63049968806837
20
69.75401200582859
10
-186.20499310176052
20
82.32253587252782
10
-183.54734398280374
20
93.52204294634669
10
-176.0488793893527
20
102.25503133960427
10
-164.36748072629337
20
107.5598153879528
10
-149.3866251569711
20
108.67100308006218
10
-132.16081902562604
20
105.06807565133494
10
-113.8507495613332
20
96.50910228741407
10
-95.65210665042741
20
83.0475278785367
10
-78.7224113223246
20
65.03100237104186
10
-64.110308359899
20
43.08231371920154
10
-52.691629768794755
20
18.06357616304059
10
-45.116122898548596
20
-8.974154812741928
10
-41.76808695119132
20
-36.85278203782488
10
-42.74331402840431
20
-64.33682071155121
10
-47.843737373137984
20
-90.2065746381823
10
-56.590110557922756
20
-113.33038771857773
10
-68.25194276296304
20
-132.73157992384947
10
-81.89286387545653
20
-147.64600046352393
10
-96.42865295622576
20
-157.56670198764718
10
-110.69439191624892
20
-162.2730236511628
10
-123.51665001973157
20
-161.84231997970574
10
-133.7862979560179
20
-156.64362891360634
10
-140.52751138942483
20
-147.313671840754
10
-142.9587554710005
20
-134.716653910278
10
-140.54202967947063
20
-119.89031895775011
10
-133.0173668423573
20
-103.98154992557399
10
-120.42047776547703
20
-88.1754417892771
10
-103.08245891306927
20
-73.62217096660756
10
-81.61157255366535
20
-61.36611882057976
10
-56.85820022367888
20
-52.28156903465229
10
-29.865094799290148
20
-47.01889773398695
10
-1.8059515249168472
20
-45.964535667073264
10
26.08397048066702
20
-49.217142495815594
10
52.580960738162524
20
-56.58144537967259
10
76.54526112097778
20
-67.58011773965083
10
96.98836113471128
20
-81.48297489539743
10
113.13109619263894
20
-97.35170812190137
10
124.44902031314405
20
-114.09743182779216
10
130.702299493552
20
-130.5475376761818
10
131.94831449267454
20
-145.517782106316
10
128.536214489523
20
-157.88521442242032
10
121.08376197224939
20
-166.65750084123923
10
110.43788733321426
20
-171.03441878723288
10
97.62136335166319
20
-170.45777196702258
10
83.76885464582801
20
-164.64668134384723
10
70.05624382228868
20
-153.61609716468797
10
57.627545066005624
20
-137.67739847072016
10
47.52386239418165
20
-117.42103685685963
10
40.618724823038505
20
-93.68227424403176
10
37.563741881081796
20
-67.49209353170556
10
38.747893924772
20
-40.01626354226874
10
44.27294087686785
20
-12.486260693793117
10
53.94645091052314
20
13.873754562057574
10
67.2928770512311
20
37.91946850324965
10
83.58201004080203
20
58.65404428786699
10
101.87307706768408
20
75.28674227354259
10
121.07180259117932
20
87.27897007482723
10
139.99695753248244
20
94.37496748739748
10
157.45234468037734
20
96.61526712102963
10
172.29983649008057
20
94.33212046853629
10
183.52901674006648
20
88.12717732308644
10
190.3191836973251
20
78.83278706720849
10
192.08993697338417
20
67.45928758941615
10
188.53726484647768
20
55.13150071246087
10
179.65293118464618
20
43.01831008978659
10
165.72597750130183
20
32.259618532104575
10
147.32624421758965
20
23.895141027813736
10
125.27090960996472
20
18.79937761983318
10
100.57607854501933
20
17.626733625086374
10
74.39636300611564
20
20.77013637084056
10
47.95612719112711
20
28.335675328429318
10
22.476577108859765
20
40.134816325348766
10
-0.8968727575832105
20
55.694669859389805
10
-21.162540401891874
20
74.28569362360008
10
-37.521595629412175
20
94.96514716045424
10
-49.424766048338704
20
116.63365678254291
10
-56.603794175462625
20
138.10144997407463
10
-59.085738933363864
20
158.16022907576155
10
-57.18925970579963
20
175.6563100503905
10
-51.50311844919478
20
189.56057447846902
10
-42.84821830752023
20
199.03097637398406
10
-32.22549979828737
20
203.4637981625984
10
-20.752876873594943
20
202.53053466077574
10
-9.595062566696669
20
196.19815845450762
10
0.1094331305312295
20
184.73153144660006
10
7.3196784140451
20
168.67781393684794
10
11.157712307792814
20
148.8338182539719
10
10.963963754735417
20
126.19829195431252
10
6.339313679246018
20
101.91203273343076
10
-2.8287698180446057
20
77.18947761656062
10
-16.357622802266846
20
53.24592761656452
10
-33.77883543404185
20
31.224834294514963
10
-54.36519248497581
20
12.12957037826206
10
-77.17347093970142
20
-3.236166948750693
10
-101.10049512912671
20
-14.31569762286341
10
-124.94904205497915
20
-20.83156938265133
10
-147.49958924501027
20
-22.80068359837516
10
-167.58354118047043
20
-20.531423039148564
10
-184.15347976171785
20
-14.602964694431499
10
-196.34616494225264
20
-5.8280459048151165
10
-203.534452566819
20
4.798540073354959
10
-205.36497074902434
20
16.162573719936432
10
-201.77926275901046
20
27.100341122215728
10
-193.01711059068285
20
36.471600264081694
10
-179.60183787069627
20
43.231129058634004
10
-162.308487519952
20
46.49448876570773
10
-142.11681179860537
20
45.593988684910855
10
-120.15193659391049
20
40.121434746703315
10
-97.6163117681232
20
29.955049500415022
10
-75.7170894049911
20
15.268915005249724
10
-55.59334960491248
20
-3.4756454358409457
10
-38.24760216591709
20
-25.55623071890168
10
-24.485731523919767
20
-50.031485918652066
10
-14.86903760519138
20
-75.7966299652997
10
-9.68128811345018
20
-101.6490136412948
10
-8.912783123603901
20
-126.35972337098832
10
-12.26239638433345
20
-148.74687773164692
10
-19.157462560908513
20
-167.74616011946898
10
-28.790292470811387
20
-182.4742988633237
10
-40.1690853841169
20
-192.28163507210584
10
-52.180130365827
20
-196.790582507181
10
-63.657500841239376
20
-195.91764235680157
10
-73.45598995311221
20
-189.87763667298623
10
-80.52283665781843
20
-179.16990646639636
10
-83.96386591235944
20
-164.54731814061125
10
-83.10000626603879
20
-146.96996824243786
10
-77.51073398852596
20
-127.54640769759021
10
-67.0617888670495
20
-107.46596608858206
10
-51.91546451720788
20
-87.92629787353847
10
-32.52283715447163
20
-70.06056277838935
10
-9.598396650707897
20
-54.86867424337281
10
15.921384625564905
20
-43.15680145243418
10
42.933031475217234
20
-35.4888072473242
10
70.23125515183854
20
-32.152576773850754
10
96.5803914766495
20
-33.14328432730845
10
120.7877462564621
20
-38.164613815492544
10
141.77439007363859
20
-46.64785439061341
10
158.63909954429656
20
-57.78770372989231
10
170.7115591589852
20
-70.59259349056833
10
177.5915914357446
20
-83.94646661961758
10
179.17203352822082
20
-96.67823834696455
10
175.64387385694292
20
-107.63470433148561
10
167.48334215501083
20
-115.75244908466465
10
155.42174478609522
20
-120.12436827823424
10
140.39988741337837
20
-120.05674616833065
10
123.50986512154519
20
-115.11340419020149
10
105.92776880122545
20
-105.14422379186597
10
88.8414091881175
20
-90.296297858054
10
73.3774627601869
20
-71.00702269959653
10
60.53247829868708
20
-47.97954214475123
10
51.11194720779656
20
-22.14202981022921
10
45.68114901992652
20
5.406720283061283
10
44.530765832258226
20
33.462090877324734
10
47.659359431147564
20
60.78488999754664
10
54.773777372674815
20
86.17472150295808
10
65.30746187195294
20
108.54101905383266
10
78.45554453671258
20
126.96742704901874
10
93.22458719069115
20
140.76561707222453
10
108.49393655536788
20
149.515271517448
10
123.08495274505066
20
153.08780818323737
10
135.83389148542287
20
151.6524094514712
10
145.6639969244288
20
145.66399692442877
10
151.6524094514712
20
135.83389148542284
10
153.08780818323748
20
123.08495274504963
10
149.5152715174478
20
108.4939365553668
10
140.76561707222461
20
93.22458719069097
10
126.96742704901882
20
78.45554453671241
10
108.54101905383271
20
65.3074618719528
10
86.17472150295814
20
54.773777372674715
10
60.78488999754569
20
47.659359431147365
10
33.462090877323746
20
44.5307658322582
10
5.406720283060288
20
45.681149019926636
10
-22.142029810229943
20
51.11194720779683
10
-47.97954214475188
20
60.53247829868748
10
-71.00702269959767
20
73.37746276018783
10
-90.29629785805487
20
88.84140918811855
10
-105.14422379186655
20
105.9277688012266
10
-115.11340419020135
20
123.50986512154535
10
-120.05674616833048
20
140.39988741337854
10
-120.12436827823436
20
155.4217447860949
10
-115.75244908466486
20
167.48334215501058
10
-107.6347043314853
20
175.64387385694312
10
-96.67823834696364
20
179.17203352822105
10
-83.94646661961697
20
177.59159143574453
10
-70.59259349056772
20
170.71155915898504
10
-57.78770372989174
20
158.6390995442962
10
-46.64785439061265
20
141.77439007363753
10
-38.16461381549196
20
120.78774625646082
10
-33.14328432730855
20
96.58039147665002
10
-32.15257677385077
20
70.2312551518391
10
-35.48880724732416
20
42.933031475217234
10
-43.15680145243418
20
15.921384625564926
10
-54.86867424337322
20
-9.598396650708558
10
-70.06056277839036
20
-32.52283715447277
10
-87.92629787353911
20
-51.91546451720828
10
-107.46596608858275
20
-67.06178886704974
10
-127.54640769759091
20
-77.51073398852603
10
-146.9699682424385
20
-83.10000626603892
10
-164.5473181406118
20
-83.96386591235941
10
-179.1699064663968
20
-80.52283665781803
10
-189.8776366729863
20
-73.455989953112
10
-195.91764235680176
20
-63.6575008412388
10
-196.79058250718106
20
-52.18013036582675
10
-192.2816350721057
20
-40.16908538411631
10
-182.47429886332333
20
-28.79029247081084
10
-167.74616011946804
20
-19.157462560907796
10
-148.74687773164618
20
-12.262396384333286
10
-126.35972337098815
20
-8.91278312360393
10
-101.6490136412939
20
-9.681288113450293
10
-75.79662996529895
20
-14.869037605191494
10
-50.031485918650645
20
-24.48573152392038
10
-25.556230718900366
20
-38.24760216591798
10
-3.4756454358403985
20
-55.59334960491303
10
15.268915005250136
20
-75.71708940499175
10
29.955049500415264
20
-97.61631176812391
10
40.12143474670319
20
-120.15193659391056
10
45.59398868491092
20
-142.1168117986055
10
46.4944887657077
20
-162.30848751995268
10
43.23112905863364
20
-179.60183787069678
10
36.47160026408095
20
-193.01711059068356
10
27.10034112221517
20
-201.7792627590107
10
16.162573719935494
20
-205.3649707490244
10
4.798540073354037
20
-203.53445256681874
10
-5.828045904815049
20
-196.34616494225293
10
-14.60296469443172
20
-184.1534797617178
10
-20.531423039148898
20
-167.58354118046987
10
-22.800683598375336
20
-147.4995892450102
10
-20.83156938265146
20
-124.94904205497787
10
-14.315697622863482
20
-101.1004951291261
10
-3.23616694875021
20
-77.17347093970018
10
12.129570378262201
20
-54.36519248497565
10
31.224834294515126
20
-33.77883543404171
10
53.24592761656535
20
-16.357622802266278
10
77.1894776165608
20
-2.8287698180445062
10
101.9120327334312
20
6.339313679246118
10
126.19829195431231
20
10.96396375473536
10
148.83381825397294
20
11.157712307792629
10
168.67781393684777
20
7.319678414045093
10
184.73153144660034
20
0.1094331305309737
10
196.19815845450762
20
-9.59506256669691
10
202.5305346607758
20
-20.75287687359554
10
203.46379816259827
20
-32.2254997982883
10
199.03097637398383
20
-42.84821830752076
10
189.56057447846825
20
-51.503118449195455
10
175.65631005038995
20
-57.189259705800076
10
158.16022907576038
20
-59.08573893336419
10
138.10144997407303
20
-56.60379417546258
10
116.63365678254193
20
-49.42476604833854
10
94.96514716045331
20
-37.5215956294119
10
74.28569362359994
20
-21.16254040189174
10
55.69466985939016
20
-0.8968727575836581
10
40.13481632534865
20
22.476577108859942
10
28.335675328429105
20
47.95612719112766
10
20.77013637084056
20
74.39636300611573
10
17.626733625086374
20
100.5760785450205
10
18.79937761983325
20
125.2709096099648
10
23.895141027814027
20
147.32624421759027
10
32.25961853210527
20
165.72597750130282
10
43.01831008978715
20
179.6529311846465
10
55.1315007124611
20
188.53726484647763
10
67.45928758941693
20
192.08993697338414
10
78.83278706720871
20
190.31918369732497
10
88.12717732308715
20
183.5290167400659
10
94.33212046853689
20
172.29983649007966
10
96.61526712102993
20
157.4523446803767
10
94.37496748739746
20
139.99695753248096
10
87.27897007482707
20
121.07180259117835
10
75.28674227354225
20
101.87307706768368
10
58.65404428786605
20
83.58201004080118
10
37.91946850324946
20
67.29287705123102
10
13.873754562056668
20
53.946450910522756
10
-12.486260693793707
20
44.27294087686769
10
-40.01626354227
20
38.74789392477186
10
-67.49209353170755
20
37.56374188108194
10
-93.68227424403291
20
40.618724823038804
10
-117.42103685686094
20
47.523862394182245
10
-137.67739847071988
20
57.62754506600563
10
-153.6160971646883
20
70.05624382228926
10
-164.64668134384704
20
83.768854645828
10
-170.4577719670225
20
97.6213633516636
10
-171.0344187872327
20
110.43788733321439
10
-166.6575008412389
20
121.0837619722498
10
-157.88521442241964
20
128.5362144895235
10
-145.51778210631537
20
131.94831449267485
10
-130.5475376761809
20
130.70229949355212
10
-114.09743182779144
20
124.44902031314416
10
-97.35170812190152
20
113.131096192639
10
-81.48297489539694
20
96.9883611347106
10
-67.58011773965094
20
76.54526112097791
10
-56.5814453796724
20
52.58096073816197
10
-49.217142495815565
20
26.083970480666927
10
-45.964535667073235
20
-1.805951524917738
10
-47.01889773398709
20
-29.865094799291416
10
-52.28156903465245
20
-56.85820022367933
10
-61.366118820580496
20
-81.61157255366662
10
-73.62217096660808
20
-103.08245891306976
10
-88.17544178927817
20
-120.42047776547778
10
-103.98154992557555
20
-133.017366842358
10
-119.89031895775112
20
-140.54202967947066
10
-134.71665391027852
20
-142.9587554710003
10
-147.31367184075424
20
-140.52751138942455
10
-156.6436289136068
20
-133.78629795601736
10
-161.84231997970596
20
-123.51665001973129
10
-162.273023651163
20
-110.69439191624821
10
-157.5667019876471
20
-96.42865295622583
10
-147.64600046352416
20
-81.8928638754569
10
-132.73157992384932
20
-68.25194276296298
10
-113.33038771857821
20
-56.59011055792299
10
-90.20657463818216
20
-47.84373737313793
10
-64.3368207115503
20
-42.743314028404185
10
-36.852782037824774
20
-41.76808695119131
10
-8.974154812741055
20
-45.11612289854877
10
18.063576163040626
20
-52.69162976879478
10
43.08231371920238
20
-64.11030835989953
10
65.03100237104307
20
-78.72241132232574
10
83.04752787853704
20
-95.65210665042804
10
96.50910228741465
20
-113.85074956133454
10
105.06807565133494
20
-132.16081902562684
10
108.67100308006198
20
-149.3866251569722
10
107.55981538795211
20
-164.3674807262949
10
102.25503133960345
20
-176.0488793893535
10
93.52204294634633
20
-183.54734398280394
10
82.32253587252728
20
-186.2049931017607
10
69.75401200582874
20
-183.63049968806843
10
56.981105522019774
20
-175.72394344455432
10
45.162883227639036
20
-162.68403912236033
10
35.38056418091679
20
-144.99729541698335
10
28.570067701608878
20
-123.40975903439173
10
25.4635044624401
20
-98.88305847957457
10
26.5431803389921
20
-72.53741772969904
10
32.010920271970804
20
-45.58510299243827
10
41.774585995954226
20
-19.25834792672066
10
55.45261395382688
20
5.263861432216451
10
72.39630183851966
20
26.925691699697687
10
91.72849084142449
20
44.85680864415695
10
112.39629169248555
20
58.42337723188395
10
133.2346467870632
20
67.26461845225133
10
153.03686022570642
20
71.31270587249367
10
170.62780266697408
20
70.79479954952033
10
184.93533438930794
20
66.21710278254362
10
195.05559783509614
20
58.33192197848095
10
200.3082036019215
20
48.089744954316004
10
200.27794866031178
20
36.579265286877586
10
194.84052507738198
20
24.95901428680255
10
184.1706518106459
20
14.384773125008692
10
168.7321318792388
20
5.9371944625206154
10
149.2504372811328
20
0.5540499894832038
10
126.66948741855762
20
-1.0287616443835645
10
102.09524876674467
20
1.6761542412394732
10
76.72958549580913
20
8.876266278249602
10
51.79838389832946
20
20.48482504223408
10
28.47832166825249
20
36.12457882051417
10
7.8267351193832795
20
55.149277863456774
10
-9.281151670171553
20
76.68166415171437
10
-22.20382053018335
20
99.66563935302514
10
-30.570741458123685
20
122.92943976160444
10
-34.303081092576626
20
145.2559762197627
10
-33.616584613824145
20
165.45606016553415
10
-29.006464125011444
20
182.44006063685904
10
-21.21522253530202
20
195.28363203140344
10
-11.185381322113656
20
203.28351289071446
10
0.0
20
206
10
11.185381322114356
20
203.28351289071412
10
21.21522253530204
20
195.2836320314033
10
29.006464125012272
20
182.4400606368581
10
33.6165846138249
20
165.4560601655319
10
34.30308109257689
20
145.25597621976135
10
30.570741458123308
20
122.9294397616017
10
22.203820530182973
20
99.6656393530237
10
9.281151670171681
20
76.68166415171427
10
-7.826735119383208
20
55.149277863456746
10
-28.47832166825245
20
36.124578820514195
10
-51.79838389833084
20
20.484825042233382
10
-76.72958549580919
20
8.876266278249759
10
-102.09524876674473
20
1.6761542412396864
10
-126.6694874185577
20
-1.0287616443832803
10
-149.25043728113286
20
0.5540499894835449
10
-168.73213187924006
20
5.937194462521063
10
-184.17065181064606
20
14.384773125008735
10
-194.8405250773826
20
24.959014286803285
10
-200.27794866031184
20
36.579265286877636
10
-200.30820360192132
20
48.089744954316714
10
-195.0555978350956
20
58.331921978481546
10
-184.93533438930706
20
66.21710278254446
10
-170.62780266697203
20
70.7947995495211
10
-153.0368602257051
20
71.31270587249395
10
-133.23464678706065
20
67.26461845225094
10
-112.39629169248298
20
58.42337723188295
10
-91.72849084142318
20
44.856808644156246
10
-72.39630183851747
20
26.925691699695584
10
-55.452613953825946
20
5.263861432215208
10
-41.774585995952904
20
-19.258347926723502
10
-32.010920271970875
20
-45.58510299243828
10
-26.543180338992258
20
-72.53741772969906
10
-25.463504462440326
20
-98.88305847957459
10
-28.57006770160916
20
-123.40975903439173
10
-35.380564180916814
20
-144.99729541698366
10
-45.16288322763845
20
-162.6840391223597
10
-56.98110552201911
20
-175.72394344455392
10
-69.75401200582805
20
-183.63049968806823
10
-82.32253587252772
20
-186.20499310176052
10
-93.52204294634699
20
-183.5473439828036
10
-102.25503133960432
20
-176.04887938935266
10
-107.55981538795292
20
-164.36748072629305
10
-108.67100308006229
20
-149.38662515697095
10
-105.06807565133491
20
-132.1608190256255
10
-96.50910228741367
20
-113.85074956133214
10
-83.04752787853636
20
-95.65210665042679
10
-65.03100237104096
20
-78.72241132232372
10
-43.08231371920114
20
-64.11030835989865
10
-18.063576163039205
20
-52.69162976879417
10
8.974154812744134
20
-45.11612289854814
10
36.85278203782633
20
-41.768086951191336
10
64.3368207115533
20
-42.743314028404725
10
90.20657463818351
20
-47.843737373138566
10
113.33038771857734
20
-56.59011055792246
10
132.73157992384864
20
-68.25194276296236
10
147.6460004635237
20
-81.89286387545617
10
157.56670198764726
20
-96.42865295622597
10
162.27302365116276
20
-110.69439191624859
10
161.84231997970568
20
-123.51665001973169
10
156.64362891360645
20
-133.78629795601773
10
147.3136718407539
20
-140.52751138942492
10
134.71665391027733
20
-142.95875547100064
10
119.89031895774984
20
-140.54202967947066
10
103.98154992557335
20
-133.01736684235712
10
88.17544178927696
20
-120.4204777654771
10
73.62217096660703
20
-103.08245891306879
10
61.366118820579025
20
-81.61157255366409
10
52.281569034651866
20
-56.85820022367792
10
47.01889773398665
20
-29.86509479928833
10
45.96453566707329
20
-1.805951524916181
10
49.21714249581595
20
26.08397048066843
10
56.58144537967304
20
52.58096073816378
10
67.58011773965109
20
76.54526112097827
10
81.48297489539796
20
96.98836113471194
10
97.3517081219017
20
113.13109619263925
10
114.09743182779275
20
124.44902031314439
10
130.54753767618308
20
130.70229949355218
10
145.51778210631568
20
131.9483144926745
10
157.88521442242057
20
128.5362144895228
10
166.65750084123962
20
121.08376197224885
10
171.03441878723285
20
110.43788733321468
10
170.45777196702272
20
97.62136335166319
10
164.6466813438472
20
83.7688546458276
10
153.6160971646877
20
70.05624382228808
10
137.6773984707189
20
57.627545066004586
10
117.42103685685973
20
47.52386239418145
10
93.6822742440315
20
40.618724823038264
10
67.49209353170453
20
37.56374188108164
10
40.01626354226689
20
38.74789392477214
10
12.48626069379177
20
44.27294087686825
10
-13.873754562058036
20
53.94645091052345
10
-37.91946850324982
20
67.2928770512312
10
-58.65404428786741
20
83.5820100408024
10
-75.2867422735433
20
101.87307706768502
10
-87.27897007482787
20
121.07180259118083
10
-94.37496748739738
20
139.99695753248227
10
-96.61526712102953
20
157.4523446803779
10
-94.33212046853589
20
172.29983649008142
10
-88.12717732308572
20
183.52901674006722
10
-78.832787067207
20
190.31918369732568
10
-67.45928758941574
20
192.08993697338425
10
-55.13150071245988
20
188.53726484647737
10
-43.018310089786716
20
179.65293118464655
10
-32.25961853210428
20
165.72597750130194
10
-23.895141027813253
20
147.32624421758916
10
-18.799377619832768
20
125.27090960996345
10
-17.626733625086217
20
100.5760785450176
10
-20.770136370840405
20
74.39636300611572
10
-28.335675328429573
20
47.956127191126185
10
-40.134816325348865
20
22.476577108859573
10
-55.6946698593904
20
-0.8968727575840063
10
-74.28569362360136
20
-21.16254040189306
10
-94.96514716045345
20
-37.5215956294117
10
-116.63365678254334
20
-49.424766048338824
10
-138.10144997407562
20
-56.60379417546277
10
-158.16022907576274
20
-59.08573893336378
10
-175.65631005039194
20
-57.189259705799145
10
-189.5605744784691
20
-51.50311844919455
10
-199.0309763739839
20
-42.84821830752073
10
-203.46379816259855
20
-32.22549979828644
10
-202.53053466077554
20
-20.752876873594786
10
-196.1981584545066
20
-9.595062566695145
10
-184.73153144660014
20
0.10943313053100212
10
-168.67781393684874
20
7.3196784140451285
10
-148.83381825397385
20
11.157712307792444
10
-126.19829195431221
20
10.96396375473563
10
-101.91203273343088
20
6.3393136792459615
10
-77.18947761655936
20
-2.8287698180449894
10
-53.24592761656632
20
-16.357622802265666
10
-31.224834294515134
20
-33.7788354340417
10
-12.129570378261917
20
-54.365192484975964
10
3.2361669487511904
20
-77.17347093970267
10
14.315697622863752
20
-101.10049512912755
10
20.83156938265099
20
-124.94904205497912
10
22.800683598374995
20
-147.49958924501033
10
20.531423039147533
20
-167.5835411804719
10
14.60296469443081
20
-184.1534797617187
10
5.8280459048150135
20
-196.34616494225304
10
-4.798540073355202
20
-203.534452566819
10
-16.162573719935544
20
-205.3649707490244
10
-27.10034112221628
20
-201.77926275901024
10
-36.471600264081474
20
-193.01711059068276
10
-43.23112905863472
20
-179.60183787069488
10
-46.494488765707636
20
-162.30848751995242
10
-45.59398868491108
20
-142.11681179860415
10
-40.12143474670303
20
-120.1519365939097
10
-29.955049500415306
20
-97.61631176812323
10
-15.26891500525052
20
-75.71708940499215
10
3.4756454358418623
20
-55.593349604911495
10
25.55623071890252
20
-38.24760216591653
10
50.031485918651185
20
-24.48573152392028
10
75.79662996529842
20
-14.869037605191693
10
101.64901364129595
20
-9.681288113450464
10
126.35972337098902
20
-8.912783123604129
10
148.7468777316472
20
-12.262396384333279
10
167.74616011946804
20
-19.157462560908193
10
182.47429886332284
20
-28.79029247081025
10
192.281635072106
20
-40.16908538411749
10
196.79058250718109
20
-52.18013036582681
10
195.91764235680117
20
-63.65750084124059
10
189.87763667298674
20
-73.45598995311148
10
179.16990646639587
20
-80.5228366578188
10
164.54731814061114
20
-83.96386591235942
10
146.96996824243612
20
-83.10000626603895
10
127.54640769758895
20
-77.51073398852544
10
107.46596608858141
20
-67.06178886704947
10
87.92629787353836
20
-51.915464517207724
10
70.0605627783884
20
-32.52283715447071
10
54.868674243371956
20
-9.598396650706356
10
43.1568014524329
20
15.921384625568404
10
35.48880724732415
20
42.93303147521743
10
32.15257677385095
20
70.23125515184118
10
33.143284327308464
20
96.58039147664877
10
38.16461381549314
20
120.78774625646236
10
46.64785439061358
20
141.77439007363856
10
57.787703729891824
20
158.6390995442964
10
70.59259349056931
20
170.71155915898566
10
83.94646661961627
20
177.59159143574445
10
96.67823834696442
20
179.17203352822077
10
107.63470433148535
20
175.64387385694306
10
115.75244908466564
20
167.48334215500967
10
120.12436827823437
20
155.42174478609437
10
120.05674616833093
20
140.39988741337766
10
115.11340419020141
20
123.50986512154509
10
105.14422379186561
20
105.92776880122425
10
90.29629785805338
20
88.84140918811693
10
71.00702269959444
20
73.37746276018513
10
47.97954214475173
20
60.53247829868734
10
22.142029810227946
20
51.11194720779612
10
-5.4067202830620555
20
45.68114901992644
10
-33.46209087732517
20
44.53076583225818
10
-60.78488999754885
20
47.65935943114809
10
-86.17472150295781
20
54.77377737267453
10
-108.54101905383375
20
65.30746187195376
10
-126.96742704901774
20
78.4555445367113
10
-140.76561707222442
20
93.22458719069135
10
-149.51527151744796
20
108.49393655536694
10
-153.08780818323726
20
123.08495274505125
10
-151.65240945147107
20
135.83389148542324
10
-145.66399692442843
20
145.6639969244291
10
-135.83389148542312
20
151.65240945147104
10
-123.08495274504891
20
153.0878081832378
10
-108.49393655536674
20
149.51527151744773
10
-93.22458719068891
20
140.76561707222368
10
-78.45554453671275
20
126.96742704901914
10
-65.30746187195186
20
108.5410190538318
10
-54.7737773726744
20
86.17472150295727
10
-47.65935943114657
20
60.78488999754316
10
-44.530765832258055
20
33.46209087732141
10
-45.68114901992678
20
5.4067202830591725
10
-51.11194720779707
20
-22.14202981023068
10
-60.53247829868755
20
-47.979542144752294
10
-73.37746276018875
20
-71.0070226995988
10
-88.8414091881191
20
-90.29629785805571
10
-105.92776880122675
20
-105.14422379186645
10
-123.50986512154537
20
-115.11340419020163
10
-140.3998874133801
20
-120.05674616833048
10
-155.42174478609616
20
-120.12436827823413
10
-167.48334215501262
20
-115.75244908466328
10
-175.64387385694312
20
-107.63470433148527
10
-179.1720335282214
20
-96.67823834696213
10
-177.5915914357443
20
-83.94646661961615
10
-170.71155915898393
20
-70.59259349056538
10
-158.63909954429445
20
-57.78770372989026
10
-141.77439007363668
20
-46.64785439061174
10
-120.78774625646001
20
-38.164613815491734
10
-96.5803914766461
20
-33.14328432730761
10
-70.23125515183528
20
-32.15257677385081
10
-42.93303147521765
20
-35.48880724732392
10
-15.921384625565683
20
-43.156801452433896
10
9.59839665070691
20
-54.868674243372226
10
32.52283715447271
20
-70.06056277839042
10
51.91546451720624
20
-87.92629787353656
10
67.06178886704895
20
-107.46596608858171
10
77.51073398852571
20
-127.54640769758932
10
83.10000626603852
20
-146.96996824243863
10
83.96386591235951
20
-164.54731814061142
10
80.52283665781795
20
-179.16990646639624
10
73.4559899531125
20
-189.87763667298586
10
63.65750084123836
20
-195.9176423568019
10
52.18013036582673
20
-196.79058250718103
10
40.169085384115164
20
-192.28163507210542
10
28.79029247081146
20
-182.47429886332395
10
19.157462560907405
20
-167.74616011946816
10
12.262396384333279
20
-148.74687773164675
10
8.91278312360329
20
-126.35972337098642
10
9.68128811345025
20
-101.64901364129317
10
14.869037605191338
20
-75.79662996529854
10
24.485731523920023
20
-50.03148591865134
10
38.247602165916874
20
-25.556230718901986
10
55.593349604913584
20
-3.4756454358398656
10
75.71708940499259
20
15.268915005250932
10
97.61631176812332
20
29.955049500414837
10
120.15193659391014
20
40.121434746703294
10
142.11681179860676
20
45.59398868491069
10
162.3084875199528
20
46.49448876570775
10
179.6018378706986
20
43.23112905863254
10
193.017110590683
20
36.47160026408146
10
201.7792627590111
20
27.100341122214076
10
205.3649707490244
20
16.162573719935473
10
203.53445256681852
20
4.798540073352889
10
196.34616494225173
20
-5.828045904816275
10
184.153479761717
20
-14.602964694432622
10
167.58354118046972
20
-20.531423039148883
10
147.49958924500783
20
-22.80068359837579
10
124.94904205497637
20
-20.831569382651175
10
101.10049512912433
20
-14.315697622862515
10
77.17347093970001
20
-3.2361669487501104
10
54.365192484975495
20
12.12957037826233
10
33.77883543403973
20
31.22483429451728
10
16.357622802265297
20
53.245927616566824
10
2.828769818042872
20
77.18947761656486
10
-6.339313679246189
20
101.91203273343139
10
-10.963963754735246
20
126.19829195431493
10
-11.157712307792792
20
148.83381825397186
10
-7.319678414044333
20
168.67781393684874
10
-0.1094331305320253
20
184.73153144659886
10
9.595062566697361
20
196.19815845450756
10
20.752876873594868
20
202.53053466077566
10
32.225499798288766
20
203.46379816259818
10
42.84821830752078
20
199.03097637398378
10
51.50311844919545
20
189.56057447846885
10
57.18925970579979
20
175.65631005039077
10
59.08573893336458
20
158.1602290757603
10
56.603794175462745
20
138.10144997407411
10
49.424766048338526
20
116.63365678254293
10
37.52159562941253
20
94.96514716045439
10
21.162540401892606
20
74.28569362360095
10
0.8968727575826705
20
55.69466985938927
10
-22.476577108860127
20
40.13481632534857
10
-47.95612719112894
20
28.335675328428735
10
-74.39636300611443
20
20.77013637084079
10
-100.57607854502037
20
17.626733625086644
10
-125.27090960996497
20
18.79937761983325
10
-147.3262442175913
20
23.895141027814795
10
-165.72597750130296
20
32.2596185321053
10
-179.65293118464632
20
43.018310089787555
10
-188.53726484647765
20
55.13150071246113
10
-192.089936973384
20
67.4592875894181
10
-190.31918369732472
20
78.83278706720938
10
-183.52901674006466
20
88.12717732308855
10
-172.29983649008034
20
94.33212046853657
10
-157.45234468037557
20
96.61526712103037
10
-139.99695753248085
20
94.3749674873974
10
-121.07180259117828
20
87.27897007482653
10
-101.87307706768141
20
75.28674227354098
10
-83.58201004080207
20
58.654044287866945
10
-67.29287705123012
20
37.919468503248474
10
-53.94645091052267
20
13.87375456205648
10
-44.27294087686691
20
-12.486260693796524
10
-38.747893924771645
20
-40.016263542271766
10
-37.563741881082095
20
-67.49209353170734
10
-40.61872482303882
20
-93.6822742440331
10
-47.523862394183006
20
-117.42103685686196
10
-57.62754506600701
20
-137.67739847072204
10
-70.05624382229193
20
-153.61609716469033
10
-83.76885464582888
20
-164.64668134384755
10
-97.6213633516656
20
-170.45777196702255
10
-110.43788733321585
20
-171.03441878723248
10
-121.08376197225002
20
-166.65750084123874
10
-128.5362144895242
20
-157.88521442241833
10
-131.94831449267522
20
-145.5177821063151
10
-130.70229949355223
20
-130.54753767618175
10
-124.44902031314412
20
-114.09743182779248
10
-113.13109619263855
20
-97.35170812190034
10
-96.9883611347125
20
-81.48297489539861
10
-76.54526112097817
20
-67.58011773965082
10
-52.5809607381632
20
-56.581445379672886
10
-26.08397048066563
20
-49.21714249581521
10
1.8059515249179476
20
-45.964535667073235
10
29.865094799289615
20
-47.01889773398699
10
56.85820022367806
20
-52.281569034652065
10
81.61157255366636
20
-61.36611882058067
10
103.08245891306993
20
-73.62217096660815
10
120.42047776547832
20
-88.1754417892793
10
133.017366842357
20
-103.98154992557376
10
140.54202967947032
20
-119.8903189577514
10
142.9587554710003
20
-134.71665391027858
10
140.5275113894236
20
-147.3136718407559
10
133.78629795601682
20
-156.64362891360724
10
123.51665001973022
20
-161.84231997970645
10
110.69439191624815
20
-162.27302365116293
10
96.42865295622578
20
-157.56670198764704
10
81.89286387545489
20
-147.64600046352305
10
68.25194276296219
20
-132.73157992384822
10
56.59011055792214
20
-113.33038771857724
10
47.8437373731379
20
-90.20657463818198
10
42.74331402840386
20
-64.33682071154902
10
41.768086951191364
20
-36.852782037823005
10
45.116122898549335
20
-8.974154812738176
10
52.691629768794854
20
18.06357616304082
10
64.11030835990033
20
43.08231371920344
10
78.72241132232583
20
65.03100237104323
10
95.65210665043023
20
83.04752787853849
10
113.8507495613357
20
96.50910228741535
10
132.16081902562806
20
105.06807565133488
10
149.3866251569723
20
108.67100308006204
10
164.36748072629405
20
107.55981538795277
10
176.04887938935408
20
102.25503133960301
10
183.54734398280425
20
93.52204294634569
10
186.2049931017607
20
82.32253587252652
10
183.63049968806808
20
69.75401200582792
10
175.72394344455276
20
56.981105522017145
10
162.68403912235848
20
45.16288322763769
10
144.9972954169802
20
35.38056418091493
10
123.40975903439026
20
28.57006770160855
10
98.88305847957184
20
25.463504462439687
10
72.53741772969582
20
26.543180338992485
10
45.585102992439985
20
32.01092027197022
10
19.25834792672334
20
41.77458599595299
10
-5.26386143221621
20
55.45261395382682
10
-26.925691699696742
20
72.39630183851875
10
-44.85680864415754
20
91.72849084142568
10
-58.423377231882824
20
112.39629169248329
10
-67.26461845225063
20
133.23464678706213
10
-71.31270587249367
20
153.03686022570542
10
-70.79479954951992
20
170.6278026669742
10
-66.21710278254362
20
184.93533438930803
10
-58.331921978480054
20
195.0555978350963
10
-48.08974495431621
20
200.30820360192146
10
-36.579265286878254
20
200.2779486603119
10
-24.9590142868021
20
194.8405250773821
10
-14.384773125008671
20
184.17065181064578
10
-5.937194462520651
20
168.7321318792399
10
-0.554049989483218
20
149.25043728113263
10
1.0287616443838914
20
126.66948741855637
10
-1.6761542412398
20
102.09524876674308
10
-8.876266278250398
20
76.7295854958064
10
-20.484825042233425
20
51.798383898330634
10
-36.124578820515005
20
28.478321668251432
10
-55.14927786345692
20
7.826735119383137
10
-76.68166415171683
20
-9.28115167017296
10
-99.66563935302662
20
-22.203820530184046
10
-122.92943976160443
20
-30.570741458123344
10
-145.25597621976283
20
-34.303081092576676
10
-165.4560601655333
20
-33.61658461382479
10
-182.44006063685998
20
-29.00646412501105
10
-195.2836320314041
20
-21.21522253530145
10
-203.28351289071446
20
-11.185381322113187
10
-206
20
0.0
10
-203.28351289071378
20
11.185381322115479
10
-195.28363203140265
20
21.215222535302612
10
-182.44006063685637
20
29.006464125013505
10
-165.45606016553282
20
33.616584613824685
10
-145.2559762197601
20
34.303081092577216
10
-122.92943976160153
20
30.570741458123223
10
-99.6656393530211
20
22.203820530182107
10
-76.68166415171159
20
9.281151670169876
10
-55.14927786345453
20
-7.82673511938512
10
-36.124578820513086
20
-28.47832166825387
10
-20.48482504223206
20
-51.79838389833343
10
-8.876266278248636
20
-76.72958549581223
10
-1.6761542412390327
20
-102.09524876674664
10
1.0287616443833087
20
-126.66948741855921
10
-0.5540499894839144
20
-149.25043728113275
10
-5.937194462521454
20
-168.73213187923997
10
-14.38477312500875
20
-184.17065181064618
10
-24.959014286803047
20
-194.84052507738204
10
-36.57926528687696
20
-200.27794866031172
10
-48.08974495431718
20
-200.3082036019212
10
-58.33192197848099
20
-195.05559783509602
10
-66.2171027825453
20
-184.9353343893062
10
-70.79479954952072
20
-170.6278026669738
10
-71.31270587249435
20
-153.036860225705
10
-67.2646184522512
20
-133.2346467870617
10
-58.42337723188327
20
-112.39629169248292
10
-44.8568086441561
20
-91.72849084142305
10
-26.92569169969697
20
-72.39630183851853
10
-5.263861432216331
20
-55.45261395382671
10
19.25834792672329
20
-41.77458599595299
10
45.585102992439985
20
-32.010920271970406
10
72.53741772969961
20
-26.543180338991974
10
98.88305847957477
20
-25.463504462440312
10
123.40975903439093
20
-28.570067701608565
10
144.99729541698457
20
-35.380564180917666
10
162.68403912236067
20
-45.16288322763914
10
175.7239434445549
20
-56.98110552202098
10
183.6304996880683
20
-69.7540120058281
10
186.2049931017603
20
-82.32253587252886
10
183.5473439828036
20
-93.52204294634703
10
176.0488793893513
20
-102.25503133960561
10
164.3674807262922
20
-107.55981538795312
10
149.3866251569698
20
-108.67100308006263
10
132.16081902562541
20
-105.06807565133484
10
113.8507495613309
20
-96.50910228741341
10
95.65210665042567
20
-83.04752787853535
10
78.72241132232179
20
-65.031002371039
10
64.11030835989855
20
-43.08231371920096
10
52.69162976879362
20
-18.063576163037975
10
45.11612289854811
20
8.974154812744342
10
41.76808695119118
20
36.85278203782696
10
42.743314028404896
20
64.336820711555
10
47.84373737313801
20
90.20657463818273
10
56.59011055792392
20
113.3303877185795
10
68.25194276296392
20
132.7315799238507
10
81.892863875459
20
147.6460004635255
10
96.42865295622774
20
157.56670198764812
10
110.6943919162506
20
162.27302365116265
10
123.51665001973241
20
161.84231997970548
10
133.7862979560197
20
156.6436289136048
10
140.5275113894255
20
147.31367184075253
10
142.95875547100093
20
134.71665391027787
10
140.54202967947086
20
119.89031895775068
10
133.01736684235743
20
103.98154992557306
10
120.42047776547699
20
88.17544178927687
10
103.08245891307016
20
73.62217096660763
10
81.61157255366652
20
61.36611882058023
10
56.85820022367816
20
52.28156903465177
10
29.86509479928968
20
47.01889773398683
10
1.8059515249171065
20
45.964535667073264
10
-26.083970480665563
20
49.21714249581538
10
-52.580960738161124
20
56.58144537967202
10
-76.545261120978
20
67.58011773965123
10
-96.98836113471108
20
81.48297489539718
10
-113.1310961926397
20
97.35170812190286
10
-124.44902031314354
20
114.09743182779086
10
-130.70229949355166
20
130.54753767618243
10
-131.94831449267457
20
145.51778210631576
10
-128.53621448952208
20
157.88521442242148
10
-121.08376197224882
20
166.65750084123965
10
-110.43788733321358
20
171.03441878723325
10
-97.62136335166313
20
170.45777196702267
10
-83.76885464582641
20
164.64668134384698
10
-70.05624382228802
20
153.61609716468757
10
-57.62754506600361
20
137.67739847071812
10
-47.52386239418141
20
117.42103685685959
10
-40.61872482303775
20
93.68227424403031
10
-37.56374188108164
20
67.49209353170433
10
-38.74789392477216
20
40.01626354226783
10
-44.2729408768686
20
12.486260693790477
10
-53.94645091052297
20
-13.873754562057243
10
-67.29287705123208
20
-37.91946850325081
10
-83.5820100408025
20
-58.654044287867556
10
-101.87307706768621
20
-75.28674227354377
10
-121.07180259118094
20
-87.27897007482795
10
-139.9969575324835
20
-94.37496748739724
10
-157.452344680378
20
-96.61526712102958
10
-172.29983649008238
20
-94.33212046853521
10
-183.52901674006728
20
-88.12717732308573
10
-190.31918369732614
20
-78.83278706720591
10
-192.08993697338423
20
-67.45928758941571
10
-188.5372648464772
20
-55.13150071245872
10
-179.65293118464513
20
-43.018310089785274
10
-165.72597750129935
20
-32.25961853210214
10
-147.3262442175867
20
-23.895141027812414
10
-125.27090960996227
20
-18.799377619832228
10
-100.57607854501741
20
-17.62673362508623
10
-74.39636300611666
20
-20.770136370840447
10
-47.95612719112598
20
-28.335675328429645
10
-22.47657710886216
20
-40.1348163253474
10
0.8968727575825355
20
-55.694669859389364
10
21.162540401891157
20
-74.28569362359924
10
37.52159562941218
20
-94.96514716045468
10
49.42476604833891
20
-116.6336567825435
10
56.603794175462156
20
-138.10144997407448
10
59.085738933363864
20
-158.1602290757607
10
57.18925970579898
20
-175.65631005039108
10
51.503118449194545
20
-189.56057447846916
10
42.84821830751863
20
-199.03097637398483
10
32.22549979828778
20
-203.46379816259832
10
20.75287687359389
20
-202.53053466077574
10
9.595062566696413
20
-196.19815845450753
10
-0.10943313053289927
20
-184.73153144659878
10
-7.319678414045832
20
-168.67781393684655
10
-11.157712307793481
20
-148.83381825397169
10
-10.963963754735587
20
-126.19829195431205
10
-6.339313679245876
20
-101.91203273343069
10
2.828769818045103
20
-77.18947761655919
10
16.357622802267528
20
-53.245927616563534
10
33.77883543404184
20
-31.22483429451499
10
54.36519248497612
20
-12.129570378261775
10
77.17347093970282
20
3.23616694875129
10
101.10049512912771
20
14.315697622863837
10
124.94904205498192
20
20.831569382651473
10
147.49958924501047
20
22.800683598375038
10
167.58354118047203
20
20.531423039147555
10
184.1534797617188
20
14.602964694430817
10
196.346164942254
20
5.828045904812914
10
203.53445256681954
20
-4.798540073356586
10
205.36497074902422
20
-16.16257371993784
10
201.77926275901024
20
-27.1003411222163
10
193.01711059068145
20
-36.47160026408339
10
179.60183787069477
20
-43.23112905863471
10
162.30848751995015
20
-46.49448876570783
10
142.116811798604
20
-45.59398868491102
10
120.15193659390955
20
-40.121434746702946
10
97.61631176812051
20
-29.955049500413836
10
75.7170894049896
20
-15.268915005248509
10
55.593349604909235
20
3.4756454358443207
10
38.24760216591643
20
25.55623071890269
10
24.485731523918886
20
50.03148591865422
10
14.869037605190826
20
75.79662996530155
10
9.681288113450137
20
101.649013641299
10
8.912783123604285
20
126.35972337099187
10
12.26239638433399
20
148.7468777316468
10
19.157462560908215
20
167.7461601194682
10
28.790292470812346
20
182.4742988633239
10
40.16908538411752
20
192.28163507210607
10
52.18013036582768
20
196.79058250718077
10
63.65750084124062
20
195.91764235680117
10
73.45598995311342
20
189.8776366729855
10
80.5228366578181
20
179.16990646639726
10
83.96386591235937
20
164.54731814061105
10
83.10000626603917
20
146.96996824243814
10
77.51073398852535
20
127.54640769758883
10
67.06178886704936
20
107.4659660885813
10
51.9154645172095
20
87.92629787354039
10
32.52283715447054
20
70.06056277838827
10
9.5983966507089
20
54.86867424337339
10
-15.9213846255686
20
43.156801452432816
10
-42.93303147521764
20
35.48880724732409
10
-70.23125515183834
20
32.15257677385101
10
-96.58039147665181
20
33.14328432730886
10
-120.78774625646254
20
38.164613815493155
10
-141.77439007364083
20
46.64785439061481
10
-158.6390995442975
20
57.787703729893934
10
-170.71155915898473
20
70.59259349056778
10
-177.59159143574482
20
83.94646661962018
10
-179.1720335282208
20
96.67823834696446
10
-175.64387385694232
20
107.63470433148655
10
-167.4833421550096
20
115.75244908466566
10
-155.42174478609394
20
120.12436827823518
10
-140.3998874133757
20
120.05674616833068
10
-123.509865121545
20
115.11340419020132
10
-105.92776880122213
20
105.14422379186415
10
-88.84140918811683
20
90.29629785805324
10
-73.3774627601867
20
71.00702269959665
10
-60.53247829868599
20
47.979542144748784
10
-51.11194720779608
20
22.142029810227744
10
-45.68114901992604
20
-5.406720283065411
10
-44.53076583225848
20
-33.462090877327626
10
-47.65935943114748
20
-60.784889997546074
10
-54.773777372676946
20
-86.17472150296254
10
-65.30746187195382
20
-108.54101905383392
10
-78.45554453671672
20
-126.96742704902246
10
-93.2245871906932
20
-140.76561707222578
10
-108.49393655536929
20
-149.5152715174479
10
-123.08495274505295
20
-153.08780818323737
10
-135.8338914854233
20
-151.65240945147107
10
-145.6639969244311
20
-145.6639969244265
10
-151.65240945147173
20
-135.8338914854225
10
-153.08780818323777
20
-123.08495274504884
10
-149.5152715174483
20
-108.49393655536845
10
-140.76561707222356
20
-93.22458719068885
10
-126.967427049019
20
-78.4555445367127
10
-108.54101905383394
20
-65.3074618719532
10
-86.17472150295708
20
-54.773777372674374
10
-60.784889997545946
20
-47.65935943114718
10
-33.4620908773212
20
-44.530765832258055
10
-5.406720283058963
20
-45.68114901992679
10
22.14202981022786
20
-51.11194720779626
10
47.97954214475434
20
-60.532478298688915
10
71.00702269959659
20
-73.37746276018719
10
90.29629785805687
20
-88.84140918812122
10
105.14422379186655
20
-105.92776880122685
10
115.11340419020087
20
-123.50986512154573
10
120.05674616833053
20
-140.39988741338018
10
120.12436827823333
20
-155.42174478609658
10
115.75244908466328
20
-167.48334215501265
10
107.63470433148525
20
-175.64387385694312
10
96.67823834696354
20
-179.17203352822122
10
83.9464666196161
20
-177.59159143574425
10
70.59259349056691
20
-170.7115591589849
10
57.787703729890225
20
-158.6390995442943
10
46.6478543906117
20
-141.77439007363654
10
38.16461381549256
20
-120.7877462564624
10
33.143284327307626
20
-96.5803914766459
10
32.15257677385074
20
-70.23125515183814
10
35.4888072473252
20
-42.93303147521129
10
43.156801452435076
20
-15.92138462556251
10
54.868674243373604
20
9.59839665070897
10
70.06056277839244
20
32.52283715447527
10
87.92629787354085
20
51.91546451720936
10
107.46596608858641
20
67.06178886705186
10
127.54640769759399
20
77.51073398852661
10
146.96996824243874
20
83.1000062660386
10
164.54731814061338
20
83.96386591235931
10
179.16990646639613
20
80.52283665781886
10
189.87763667298907
20
73.45598995310846
10
195.91764235680233
20
63.657500841237024
10
196.790582507181
20
52.18013036582669
10
192.28163507210496
20
40.16908538411593
10
182.47429886332154
20
28.790292470808076
10
167.7461601194642
20
19.157462560905344
10
148.74687773164425
20
12.262396384332611
10
126.35972337098835
20
8.9127831236042
10
101.64901364128787
20
9.681288113450236
10
75.79662996530128
20
14.869037605190584
10
50.03148591865116
20
24.485731523920123
10
25.556230718904445
20
38.247602165915254
10
3.4756454358381816
20
55.59334960491542
10
-15.268915005250271
20
75.71708940499235
10
-29.955049500413566
20
97.61631176812092
10
-40.12143474670338
20
120.15193659391028
10
-45.59398868490989
20
142.11681179860668
10
-46.49448876570668
20
162.3084875199549
10
-43.231129058633215
20
179.60183787069693
10
-36.47160026408246
20
193.01711059068174
10
-27.10034112221621
20
201.7792627590104
10
-16.162573719934553
20
205.36497074902448
10
-4.798540073352866
20
203.53445256681846
10
5.828045904815081
20
196.34616494225276
10
14.602964694429893
20
184.15347976171995
10
20.531423039150262
20
167.58354118046782
10
22.800683598375656
20
147.4995892450101
10
20.831569382651118
20
124.94904205497622
10
14.315697622863382
20
101.1004951291269
10
3.2361669487507214
20
77.17347093970035
10
-12.129570378263708
20
54.365192484973456
10
-31.224834294515098
20
33.77883543404174
10
-53.24592761656699
20
16.35762280226517
10
-77.18947761656445
20
2.8287698180434546
10
-101.91203273343103
20
-6.339313679245535
10
-126.19829195431507
20
-10.963963754735303
10
-148.833818253972
20
-11.15771230779282
10
-168.67781393684925
20
-7.31967841404515
10
-184.73153144660176
20
-0.10943313052905523
10
-196.19815845450762
20
9.59506256669738
10
-202.53053466077608
20
20.752876873596286
10
-203.46379816259855
20
32.22549979828654
10
-199.030976373982
20
42.848218307524085
10
-189.56057447846743
20
51.50311844919636
10
-175.65631005039066
20
57.18925970579977
10
-158.1602290757601
20
59.08573893336366
10
-138.10144997407173
20
56.60379417546308
10
-116.63365678253803
20
49.42476604833723
10
-94.9651471604518
20
37.52159562941085
10
-74.2856936236008
20
21.162540401892464
10
-55.69466985938564
20
0.8968727575783859
10
-40.13481632534733
20
-22.476577108862287
10
-28.335675328427556
20
-47.95612719113208
10
-20.77013637084015
20
-74.39636300611761
10
-17.62673362508609
20
-100.57607854501833
10
-18.799377619833862
20
-125.27090960996449
10
-23.8951410278148
20
-147.32624421759144
10
-32.259618532104156
20
-165.72597750130126
10
-43.018310089784066
20
-179.65293118464433
10
-55.131500712463435
20
-188.53726484647794
10
-67.45928758941668
20
-192.08993697338394
10
-78.83278706720941
20
-190.3191836973247
10
-88.12717732308576
20
-183.52901674006705
10
-94.33212046853743
20
-172.29983649008005
10
-96.61526712103033
20
-157.4523446803755
10
-94.37496748739778
20
-139.99695753248287
10
-87.27897007482643
20
-121.07180259117817
10
-75.28674227354176
20
-101.8730770676813
10
-58.65404428786768
20
-83.58201004080203
10
-37.9194685032483
20
-67.29287705123002
10
-13.87375456205913
20
-53.94645091052389
10
12.486260693794545
20
-44.272940876867466
10
40.01626354227112
20
-38.74789392477193
10
67.4920935317045
20
-37.56374188108195
10
93.68227424403327
20
-40.61872482303883
10
117.42103685685792
20
-47.52386239418052
10
137.6773984707235
20
-57.62754506600892
10
153.61609716468894
20
-70.05624382229041
10
164.64668134384675
20
-83.76885464582728
10
170.45777196702292
20
-97.62136335166339
10
171.0344187872319
20
-110.43788733321658
10
166.65750084123744
20
-121.08376197225189
10
157.88521442241955
20
-128.5362144895235
10
145.51778210631707
20
-131.9483144926742
10
130.5475376761776
20
-130.70229949355226
10
114.09743182779012
20
-124.44902031314392
10
97.35170812189833
20
-113.1310961926369
10
81.48297489539678
20
-96.98836113471032
10
67.58011773964914
20
-76.54526112097639
10
56.5814453796706
20
-52.5809607381582
10
49.217142495815196
20
-26.083970480665425
10
45.96453566707311
20
1.8059515249213245
10
47.01889773398689
20
29.865094799290716
10
52.28156903465309
20
56.858200223680306
10
61.36611882058197
20
81.61157255366913
10
73.62217096660822
20
103.08245891307007
10
88.17544178927906
20
120.42047776547929
10
103.98154992557797
20
133.01736684235848
10
119.89031895775148
20
140.5420296794704
10
134.7166539102803
20
142.9587554710003
10
147.31367184075407
20
140.52751138942492
10
156.64362891360963
20
133.78629795601404
10
161.84231997970605
20
123.51665001973157
10
162.2730236511629
20
110.6943919162481
10
157.56670198764775
20
96.42865295622745
10
147.6460004635223
20
81.89286387545266
10
132.73157992384887
20
68.25194276296169
10
113.33038771857946
20
56.5901105579233
10
90.20657463818179
20
47.843737373137884
10
64.33682071154966
20
42.743314028403546
10
36.852782037820525
20
41.76808695119128
10
8.97415481274108
20
45.11612289854875
10
-18.06357616303807
20
52.69162976879382
10
-43.08231371920187
20
64.11030835989897
10
-65.0310023710425
20
78.72241132232593
10
-83.04752787853863
20
95.65210665043033
10
-96.50910228741425
20
113.85074956133367
10
-105.0680756513346
20
132.16081902562382
10
-108.67100308006128
20
149.3866251569745
10
-107.55981538795194
20
164.3674807262944
10
-102.255031339603
20
176.0488793893541
10
-93.52204294634691
20
183.54734398280362
10
-82.32253587252572
20
186.20499310176115
10
-69.7540120058256
20
183.63049968806797
10
-56.981105522018595
20
175.72394344455384
10
-45.16288322763765
20
162.68403912235834
10
-35.38056418091428
20
144.9972954169807
10
-28.570067701607982
20
123.40975903439077
10
-25.463504462439715
20
98.88305847957166
10
-26.543180338992187
20
72.53741772969865
10
-32.01092027197157
20
45.58510299243599
10
-41.77458599595535
20
19.25834792671821
10
-55.452613953826926
20
-5.26386143221638
10
-72.39630183852097
20
-26.925691699699122
10
-91.7284908414237
20
-44.856808644156786
10
-112.39629169249046
20
-58.42337723188572
10
-133.23464678706458
20
-67.26461845225138
10
-153.03686022570554
20
-71.3127058724937
10
-170.62780266697428
20
-70.79479954952085
10
-184.93533438930962
20
-66.21710278254193
10
-195.05559783509818
20
-58.33192197847778
10
-200.30820360192178
20
-48.089744954314845
10
-200.2779486603119
20
-36.57926528687823
10
-194.84052507738173
20
-24.959014286802912
10
-184.17065181064459
20
-14.384773125006667
10
-168.7321318792358
20
-5.937194462518903
10
-149.2504372811301
20
-0.5540499894827633
10
-126.66948741855836
20
1.028761644383124
10
-102.09524876674348
20
-1.6761542412391748
10
-76.72958549580623
20
-8.876266278250498
10
-51.79838389833047
20
-20.484825042233524
10
-28.478321668255532
20
-36.12457882051176
10
-7.8267351193815955
20
-55.14927786345888
10
9.281151670171425
20
-76.68166415171444
10
22.20382053018414
20
-99.66563935302678
10
30.570741458123607
20
-122.92943976160231
10
34.303081092575866
20
-145.2559762197627
10
33.616584613823555
20
-165.45606016553535
10
29.00646412501185
20
-182.4400606368584
10
21.215222535301436
20
-195.28363203140418
10
11.185381322110963
20
-203.28351289071506
10
-0.000000000001
20
-206
10
-11.1853813221155
20
-203.28351289071375
10
-21.21522253530151
20
-195.28363203140378
10
-29.006464125011824
20
-182.44006063685782
10
-33.61658461382592
20
-165.4560601655308
10
-34.30308109257728
20
-145.25597621976243
10
-30.570741458123152
20
-122.92943976160139
10
-22.203820530183528
20
-99.66563935302582
10
-9.281151670168867
20
-76.68166415170936
10
7.826735119385262
20
-55.14927786345439
10
28.478321668251567
20
-36.12457882051491
10
51.79838389833152
20
-20.484825042232885
10
76.72958549581178
20
-8.876266278249176
10
102.09524876674908
20
-1.6761542412391321
10
126.66948741855937
20
1.0287616443833372
10
149.250437281131
20
-0.554049989482678
10
168.73213187924364
20
-5.9371944625239905
10
184.17065181064737
20
-14.38477312501076
10
194.84052507738392
20
-24.959014286805797
10
200.27794866031203
20
-36.5792652868784
10
200.3082036019207
20
-48.089744954319414
10
195.055597835094
20
-58.33192197848415
10
184.93533438930615
20
-66.2171027825453
10
170.62780266696998
20
-70.79479954952143
10
153.03686022570486
20
-71.31270587249338
10
133.23464678705932
20
-67.26461845225134
10
112.39629169248037
20
-58.42337723188194
10
91.72849084142292
20
-44.85680864415596
10
72.39630183851607
20
-26.92569169969373
10
55.45261395382343
20
-5.263861432211776
10
41.77458599595292
20
19.25834792672348
10
32.010920271969496
20
45.58510299244321
10
26.54318033899193
20
72.53741772969983
10
25.46350446244132
20
98.8830584795829
10
28.570067701610412
20
123.40975903439565
10
35.38056418091768
20
144.99729541698474
10
45.162883227640485
20
162.68403912236255
10
56.98110552202321
20
175.72394344455557
10
69.75401200583347
20
183.63049968806953
10
82.32253587253035
20
186.20499310176024
10
93.52204294634703
20
183.54734398280357
10
102.25503133960478
20
176.0488793893516
10
107.55981538795442
20
164.36748072629027
10
108.67100308006245
20
149.38662515696595
10
105.06807565133413
20
132.16081902562323
10
96.50910228741361
20
113.85074956133306
10
83.04752787853259
20
95.65210665042142
10
65.03100237103884
20
78.72241132232169
10
43.082313719195476
20
64.11030835989547
10
18.06357616303688
20
52.69162976879345
10
-8.974154812746775
20
45.116122898547616
10
-36.852782037832576
20
41.768086951191165
10
-64.33682071155522
20
42.74331402840491
10
-90.20657463818844
20
47.8437373731397
10
-113.33038771858367
20
56.59011055792682
10
-132.731579923852
20
68.25194276296594
10
-147.64600046352697
20
81.89286387546075
10
-157.56670198764664
20
96.42865295622435
10
-162.27302365116185
20
110.69439191624963
10
-161.84231997970485
20
123.5166500197331
10
-156.64362891360656
20
133.78629795601762
10
-147.31367184075646
20
140.5275113894237
10
-134.71665391027992
20
142.95875547100007
10
-119.89031895775018
20
140.54202967947157
10
-103.98154992557299
20
133.01736684235732
10
-88.17544178927861
20
120.42047776547852
10
-73.62217096661097
20
103.08245891307348
10
-61.366118820578706
20
81.6115725536646
10
-52.28156903465258
20
56.85820022368088
10
-47.018897733986805
20
29.865094799289473
10
-45.964535667073136
20
1.8059515249200633
10
-49.21714249581541
20
-26.08397048066487
10
-56.58144537967323
20
-52.58096073816327
10
-67.58011773964984
20
-76.54526112097568
10
-81.48297489539726
20
-96.98836113471121
10
-97.3517081219032
20
-113.13109619263896
10
-114.09743182779128
20
-124.44902031314278
10
-130.5475376761825
20
-130.70229949355172
10
-145.5177821063142
20
-131.94831449267477
10
-157.8852144224198
20
-128.53621448952353
10
-166.65750084124016
20
-121.08376197224808
10
-171.03441878723297
20
-110.43788733321497
10
-170.45777196702264
20
-97.62136335166309
10
-164.6466813438481
20
-83.76885464583026
10
-153.61609716468666
20
-70.05624382228586
10
-137.67739847072005
20
-57.62754506600493
10
-117.42103685686189
20
-47.52386239418241
10
-93.68227424403216
20
-40.61872482303876
10
-67.49209353170495
20
-37.56374188108131
10
-40.01626354226535
20
-38.74789392477226
10
-12.486260693793326
20
-44.27294087686779
10
13.873754562054593
20
-53.94645091052175
10
37.91946850325262
20
-67.29287705123377
10
58.65404428786681
20
-83.58201004080254
10
75.2867422735439
20
-101.87307706768632
10
87.27897007482703
20
-121.07180259117884
10
94.37496748739642
20
-139.99695753248372
10
96.61526712102867
20
-157.45234468038015
10
94.33212046853578
20
-172.2998364900809
10
88.12717732308572
20
-183.5290167400673
10
78.83278706720927
20
-190.31918369732477
10
67.45928758941487
20
-192.0899369733846
10
55.13150071245869
20
-188.53726484647711
10
43.01831008978665
20
-179.65293118464638
10
32.25961853210401
20
-165.72597750130052
10
23.89514102781174
20
-147.32624421758715
10
18.79937761983267
20
-125.27090960996475
10
17.626733625086274
20
-100.57607854501722
10
20.770136370840504
20
-74.39636300611646
10
28.335675328431392
20
-47.95612719112066
10
40.13481632535019
20
-22.47657710885722
10
55.694669859389485
20
0.8968727575827131
10
74.28569362360162
20
21.162540401893352
10
94.96514716045698
20
37.521595629413014
10
116.63365678254837
20
49.424766048340196
10
138.101449974077
20
56.603794175462724
10
158.1602290757608
20
59.08573893336391
10
175.65631005039123
20
57.18925970579989
10
189.5605744784706
20
51.50311844919274
10
199.03097637398568
20
42.84821830751741
10
203.46379816259855
20
32.22549979828639
10
202.53053466077588
20
20.752876873596122
10
196.1981584545057
20
9.595062566692953
10
184.7315314465987
20
-0.10943313053292059
10
168.6778139368444
20
-7.3196784140465425
10
148.83381825397112
20
-11.157712307792671
10
126.19829195430967
20
-10.963963754736085
10
101.91203273342545
20
-6.339313679245052
10
77.18947761655902
20
2.8287698180452026
10
53.24592761656076
20
16.35762280226939
10
31.224834294510828
20
33.778835434045675
10
12.129570378260397
20
54.36519248497818
10
-3.2361669487528815
20
77.17347093970565
10
-14.315697622863922
20
101.10049512912789
10
-20.831569382652333
20
124.9490420549825
10
-22.800683598374064
20
147.49958924501516
10
-20.53142303914757
20
167.58354118047214
10
-14.602964694429886
20
184.15347976172052
10
-5.8280459048149815
20
196.34616494225318
10
4.798540073360204
20
203.53445256682045
10
16.162573719939235
20
205.3649707490241
10
27.100341122216317
20
201.77926275901018
10
36.471600264082504
20
193.01711059068134
10
43.23112905863624
20
179.60183787069303
10
46.49448876570911
20
162.30848751994586
10
45.59398868491067
20
142.11681179860145
10
40.12143474670285
20
120.15193659390941
10
29.95504950041289
20
97.61631176812003
10
15.268915005247315
20
75.71708940498743
10
-3.475645435846779
20
55.59334960490696
10
-25.55623071890021
20
38.24760216591807
10
-50.03148591865084
20
24.485731523920634
10
-75.79662996530105
20
14.869037605191338
10
-101.64901364129344
20
9.681288113450663
10
-126.359723370984
20
8.912783123603646
10
-148.74687773164516
20
12.262396384332611
10
-167.7461601194678
20
19.157462560908982
10
-182.474298863324
20
28.790292470812375
10
-192.28163507210536
20
40.16908538411613
10
-196.79058250718077
20
52.180130365824006
10
-195.91764235680085
20
63.65750084124149
10
-189.87763667298643
20
73.45598995311238
10
-179.16990646639573
20
80.52283665781879
10
-164.54731814061284
20
83.96386591235911
10
-146.969968242438
20
83.10000626604003
10
-127.54640769758872
20
77.51073398852616
10
-107.46596608858346
20
67.06178886705064
10
-87.92629787353812
20
51.91546451720745
10
-70.06056277838837
20
32.52283715447125
10
-54.86867424337356
20
9.598396650709567
10
-43.15680145243384
20
-15.921384625565828
10
-35.48880724732466
20
-42.93303147521476
10
-32.15257677385058
20
-70.23125515183933
10
-33.14328432730932
20
-96.58039147665124
10
-38.164613815492345
20
-120.78774625646014
10
-46.64785439061366
20
-141.77439007363884
10
-57.78770372989047
20
-158.63909954429502
10
-70.59259349057164
20
-170.7115591589863
10
-83.94646661961863
20
-177.59159143574442
10
-96.67823834696304
20
-179.17203352822096
10
-107.6347043314854
20
-175.64387385694306
10
-115.75244908466644
20
-167.48334215500915
10
-120.12436827823547
20
-155.42174478609226
10
-120.05674616833085
20
-140.3998874133775
10
-115.11340419020202
20
-123.50986512154694
10
-105.1442237918649
20
-105.92776880122184
10
-90.29629785805398
20
-88.84140918811661
10
-71.0070226995941
20
-73.37746276018495
10
-47.979542144751356
20
-60.53247829868721
10
-22.142029810228436
20
-51.11194720779608
10
5.406720283064731
20
-45.681149019926124
10
33.4620908773247
20
-44.53076583225835
10
60.78488999754926
20
-47.65935943114813
10
86.17472150295818
20
-54.773777372674616
10
108.54101905383325
20
-65.30746187195419
10
126.9674270490208
20
-78.45554453671512
10
140.76561707222464
20
-93.22458719069148
10
149.51527151744875
20
-108.49393655536886
10
153.0878081832367
20
-123.08495274505356
10
151.65240945147042
20
-135.83389148542392
10
145.66399692442744
20
-145.66399692443014
10
135.83389148542304
20
-151.65240945147104
10
123.08495274504497
20
-153.08780818323828
10
108.49393655536434
20
-149.51527151744767
10
93.22458719069054
20
-140.7656170722247
10
78.45554453671099
20
-126.96742704901706
10
65.30746187195
20
-108.54101905383001
10
54.77377737267193
20
-86.17472150295237
10
47.65935943114653
20
-60.78488999754276
10
44.53076583225818
20
-33.46209087732412
10
45.68114901992692
20
-5.406720283057863
10
51.11194720779798
20
22.142029810233204
10
60.532478298690265
20
47.97954214475729
10
73.3774627601889
20
71.00702269959915
10
88.84140918811738
20
90.2962978580541
10
105.9277688012312
20
105.14422379186853
10
123.50986512154783
20
115.11340419020175
10
140.39988741338215
20
120.05674616833082
10
155.42174478609627
20
120.12436827823419
10
167.48334215501313
20
115.75244908466247
10
175.64387385694505
20
107.63470433148211
10
179.17203352822133
20
96.67823834696206
10
177.59159143574374
20
83.94646661961448
10
170.71155915898422
20
70.5925934905675
10
158.63909954429485
20
57.78770372988955
10
141.77439007363424
20
46.647854390610476
10
120.78774625645967
20
38.164613815491705
10
96.58039147664496
20
33.143284327308095
10
70.23125515183264
20
32.152576773850555
10
42.93303147521417
20
35.48880724732463
10
15.921384625559341
20
43.15680145243623
10
-9.598396650710015
20
54.86867424337396
10
-32.522837154479305
20
70.06056277839616
10
-51.91546451721143
20
87.92629787354313
10
-67.06178886705058
20
107.46596608858425
10
-77.51073398852759
20
127.54640769759413
10
-83.10000626603835
20
146.9699682424432
10
-83.96386591235802
20
164.54731814061734
10
-80.5228366578166
20
179.16990646639934
10
-73.45598995311144
20
189.8776366729869
10
-63.65750084123785
20
195.91764235680205
10
-52.180130365822954
20
196.79058250718094
10
-40.169085384112236
20
192.2816350721037
10
-28.7902924708114
20
182.47429886332375
10
-19.157462560906637
20
167.7461601194684
10
-12.262396384331915
20
148.74687773164464
10
-8.91278312360356
20
126.35972337098876
10
-9.681288113449781
20
101.64901364129854
10
-14.869037605191266
20
75.79662996530041
10
-24.485731523919668
20
50.0314859186517
10
-38.24760216591838
20
25.55623071889974
10
-55.59334960491173
20
3.475645435841841
10
-75.71708940498807
20
-15.268915005247472
10
-97.61631176812584
20
-29.955049500415598
10
-120.15193659391015
20
-40.121434746702626
10
-142.11681179860705
20
-45.5939886849108
10
-162.30848751995086
20
-46.494488765708034
10
-179.6018378706969
20
-43.23112905863233
10
-193.01711059068435
20
-36.471600264079534
10
-201.77926275901046
20
-27.100341122215298
10
-205.3649707490244
20
-16.162573719935423
10
-203.53445256681857
20
-4.798540073351953
10
-196.34616494225293
20
5.828045904815976
10
-184.1534797617168
20
14.602964694432629
10
-167.58354118047157
20
20.5314230391483
10
-147.49958924500962
20
22.80068359837481
10
-124.94904205497649
20
20.831569382651843
10
-101.1004951291272
20
14.315697622864064
10
-77.17347093969967
20
3.236166948749883
10
-54.365192484977655
20
-12.129570378260667
10
-33.77883543403791
20
-31.224834294519248
10
-16.357622802265695
20
-53.245927616566554
10
-2.828769818045174
20
-77.18947761655966
10
6.339313679246345
20
-101.91203273343173
10
10.963963754734593
20
-126.19829195431475
10
11.157712307791499
20
-148.83381825397657
10
7.31967841404434
20
-168.677813936849
10
0.10943313053199688
20
-184.73153144659906
10
-9.595062566700836
20
-196.19815845450944
10
-20.752876873597184
20
-202.5305346607759
10
-32.22549979829017
20
-203.46379816259795
10
-42.84821830752081
20
-199.03097637398372
10
-51.50311844919726
20
-189.56057447846734
10
-57.189259705801696
20
-175.656310050387
10
-59.085738933364496
20
-158.16022907576007
10
-56.60379417546214
20
-138.10144997407147
10
-49.42476604833833
20
-116.63365678254264
10
-37.52159562941157
20
-94.96514716045195
10
-21.162540401889046
20
-74.28569362359652
10
-0.8968727575823365
20
-55.69466985938903
10
22.47657710886326
20
-40.134816325346804
10
47.95612719113153
20
-28.335675328427968
10
74.39636300611708
20
-20.770136370840646
10
100.57607854502362
20
-17.626733625086516
10
125.27090960996532
20
-18.799377619833223
10
147.3262442175956
20
-23.89514102781716
10
165.72597750130447
20
-32.25961853210721
10
179.6529311846465
20
-43.01831008978762
10
188.53726484647848
20
-55.13150071246269
10
192.08993697338437
20
-67.45928758941591
10
190.3191836973233
20
-78.83278706721279
10
183.52901674006458
20
-88.12717732308855
10
172.2998364900802
20
-94.33212046853654
10
157.45234468037557
20
-96.6152671210294
10
139.9969575324784
20
-94.37496748739768
10
121.07180259117357
20
-87.27897007482517
10
101.87307706768118
20
-75.28674227354072
10
83.58201004080186
20
-58.65404428786663
10
67.29287705122664
20
-37.91946850324397
10
53.946450910521364
20
-13.873754562054117
10
44.27294087686593
20
12.486260693799984
10
38.74789392477159
20
40.01626354227217
10
37.563741881082564
20
67.49209353170997
10
40.61872482304048
20
93.68227424403833
10
47.52386239418308
20
117.4210368568623
10
57.62754506600845
20
137.67739847072437
10
70.05624382228991
20
153.61609716468976
10
83.76885464583125
20
164.646681343848
10
97.62136335166728
20
170.457771967023
10
110.43788733321593
20
171.0344187872325
10
121.08376197225117
20
166.65750084123792
10
128.53621448952566
20
157.8852144224165
10
131.94831449267534
20
145.51778210631335
10
130.70229949355138
20
130.54753767617788
10
124.449020313143
20
114.09743182779036
10
113.13109619263462
20
97.35170812189416
10
96.98836113470695
20
81.482974895393
10
76.54526112097533
20
67.58011773964921
10
52.58096073815712
20
56.581445379670626
10
26.083970480659964
20
49.2171424958139
10
-1.8059515249269733
20
45.964535667072866
10
-29.865094799296266
20
47.01889773398777
10
-56.858200223681386
20
52.28156903465299
10
-81.6115725536702
20
61.366118820581804
10
-103.08245891307372
20
73.62217096661172
10
-120.4204777654819
20
88.17544178928304
10
-133.0173668423594
20
103.98154992557767
10
-140.5420296794697
20
119.89031895775199
10
-142.95875547099973
20
134.71665391027756
10
-140.5275113894242
20
147.31367184075464
10
-133.78629795601887
20
156.64362891360548
10
-123.5166500197322
20
161.8423199797054
10
-110.69439191624744
20
162.27302365116356
10
-96.42865295622683
20
157.56670198764837
10
-81.89286387545646
20
147.64600046352422
10
-68.2519427629651
20
132.73157992385177
10
-56.59011055792044
20
113.33038771857531
10
-47.843737373137515
20
90.20657463818243
10
-42.7433140284046
20
64.33682071155465
10
-41.76808695119131
20
36.852782037825726
10
-45.116122898548625
20
8.97415481274175
10
-52.69162976879596
20
-18.063576163043273
10
-64.110308359899
20
-43.08231371920116
10
-78.72241132232236
20
-65.03100237103908
10
-95.6521066504305
20
-83.04752787853788
10
-113.8507495613339
20
-96.5091022874135
10
-132.16081902562826
20
-105.06807565133504
10
-149.38662515697058
20
-108.67100308006208
10
-164.36748072629476
20
-107.55981538795112
10
-176.04887938935454
20
-102.25503133960217
10
-183.54734398280408
20
-93.52204294634608
10
-186.20499310176066
20
-82.32253587252644
10
-183.63049968806854
20
-69.75401200582938
10
-175.7239434445543
20
-56.98110552201784
10
-162.68403912235885
20
-45.162883227636954
10
-144.99729541698434
20
-35.38056418091692
10
-123.40975903438992
20
-28.570067701608565
10
-98.8830584795722
20
-25.463504462439204
10
-72.53741772969921
20
-26.543180338991746
10
-45.58510299243657
20
-32.010920271971216
10
-19.258347926722955
20
-41.77458599595316
10
5.263861432220942
20
-55.452613953830216
10
26.92569169969842
20
-72.39630183852081
10
44.85680864415605
20
-91.72849084142364
10
58.42337723188426
20
-112.39629169248596
10
67.26461845225101
20
-133.23464678706011
10
71.31270587249311
20
-153.03686022570997
10
70.79479954951996
20
-170.6278026669744
10
66.21710278254443
20
-184.93533438930675
10
58.33192197848091
20
-195.05559783509625
10
48.08974495431395
20
-200.308203601922
10
36.57926528687451
20
-200.2779486603115
10
24.95901428680205
20
-194.84052507738198
10
14.384773125009822
20
-184.1706518106471
10
5.937194462518114
20
-168.73213187923608
10
0.5540499894820101
20
-149.25043728113044
10
-1.0287616443838061
20
-126.66948741855336
10
1.676154241239928
20
-102.09524876674273
10
8.876266278249929
20
-76.72958549580666
10
20.484825042236096
20
-51.79838389832547
10
36.12457882051526
20
-28.478321668251084
10
55.149277863459524
20
-7.826735119380714
10
76.68166415171507
20
9.28115167017232
10
99.66563935302653
20
22.203820530183442
10
122.92943976160734
20
30.570741458124104
10
145.2559762197631
20
34.303081092576775
10
165.45606016553572
20
33.61658461382445
10
182.44006063686174
20
29.006464125009384
10
195.28363203140412
20
21.215222535300544
10
203.28351289071514
20
11.185381322111835
10
206
20
-0.0
0
ENDSEC
0
EOF
